<svg id="Groupe_439" data-name="Groupe 439" xmlns="http://www.w3.org/2000/svg" width="814.715" height="527.652" viewBox="0 0 814.715 527.652">
  <path id="Tracé_43127" data-name="Tracé 43127" d="M82.773,162.526c1.619,0,1.818.535,3.2,0s5.477-3,6.864-3.339,2.275.111.232,1.148-6.136,3.285-5.406,3.119a53.661,53.661,0,0,0,5.735-2.248c2.937-1.262,2.67-.7,3.43-2.05s1.152-2.05,1.152-2.05,4.654,4.355,5.082,4.523.6-.033.826-.562.725-1.295,1.384-1.04.1,1.29.493,1.433a4.7,4.7,0,0,0,2.275-.394c1.224-.367.6-1.181.6-1.181s-.134-.027,1.289-.138,5.869,1.374,7.188,1.849,5.313.874,6.439,1.211,1.541-.589,3.1.168,2.709,1.767,1.547,2.3-4.054.928-2.569,1.262a24.62,24.62,0,0,0,5.869.7c2.147-.057,6.006-.787,7.188-.787s1.916.673,3.041,2.386,2.008,2.389,2.435,2.527-.428-.814-.2-1.653a6.113,6.113,0,0,0-.493-3.062c-.261-.562,0-.842-.529-1.659s-1.387-.673.2-1.376,2.676-1.737,4.589-1.515,2.438,2.443,4.09,2.612,1.951.757,4.782.953,1.651.03,4.82.228,2.011-.312,2.667-1.8,1.387-1.77,2.147-1.716,3.427.394,3.427.7-1.12,1.909-.561,2.693a13.144,13.144,0,0,0,2.842,2.08s-.493-1.8-.493-1.993-.169-1.6.16-1.852,2.21.139,3.4-1.968-.8-1.993-.8-1.993-.725.03-.365-.842,2.477-1.4,2.477-1.4.134.391-.134-.309-1.645-.562-3.13-.649-2.507-.277-2.774-1.431a30.815,30.815,0,0,1-.359-5.223c0-1.653,1.449-1.064,1.711-1.993a21.876,21.876,0,0,0-.422-6.374c-.368-.926.52-2.921.725-4.235s1.681-.733,1.681-.733c-.267-.451.425-1.716,2.409-2.248s5.741.027,5.741.027-.336.03-1.256,1.124-.327,3.035-1.72,4.412-4.913.926-4.913.926,1.09,2.272.627,3a8.385,8.385,0,0,0-.754,2.218s3.1.787,3.267,2.584,1.711,2.107,2.076,3.76-1.521,3.032-1.126,3.288.529.367,1.654.418,2.637.255,2.637.255a1.608,1.608,0,0,0-.068,1.74c.561.9.134,1.461.2,2.416s.7,1.767.959,1.6a13.867,13.867,0,0,0,1.749-3.706c.261-1.094.46-1.683.986-1.683a5.66,5.66,0,0,1,2.507,2.02c.2.538.33,1.268-.653,2.726s-.894,2.131-.036,2.693a12.925,12.925,0,0,0,2.441,1.07c1.547.676,1.253.616,2.21.364s-.4-2.473-.3-2.525,2.278-.282,1.785-1.406-.992-1.686.03-2.248,1.752-1.01,1.752-1.01a10.376,10.376,0,0,1-1.289-2.639c-.725-1.881.627-1.374,3.469-1.181s2.964,1.1,4.485,1.8.555.956,1.048,2.08-1.25,1.292-1.25,1.292-1.155.2-.888,1.067a14.686,14.686,0,0,0,1.619,3.255c.823,1.349-.235,2.275-1.521,3.369a6.58,6.58,0,0,1-4.321,1.436c-1.521.024-2.177.586-2.275.2s-.829-.76-1.645-.589-2.712.842-2.049,1.067,2.409.168,1.681,1.4-1.357,1.235-2.807,1.091-2.8-.136-3.73-.2-5.477-.307-5.477-.307a32.477,32.477,0,0,0,5.518,2.413,12.941,12.941,0,0,0,5.01.28s-.992,1.686-2.18,3.483-2.308,1.013-3.294,1.124-1.583.842-3.43,1.067-5.708-.478-5.114-.225a4.964,4.964,0,0,0,1.913.844,4.737,4.737,0,0,1,2.64,1.01c.924.7-.6.871-1.815,1.064a2.633,2.633,0,0,0-2.112,1.1c-.564.7-2.64,3.426-3.3,4.27a8.742,8.742,0,0,0-1.512,3.9c-.267,1.659-1.818,3.649-1.12,4.072s3.294.478,4.384,1.094,2.311,3.651,3.133,4.8,1.485,2.02,2.409,1.124,2.735-.676,4.455-.114a26.459,26.459,0,0,1,6.3,3.763c1.093.98,3,.817,5.147,1.094s2.385,1.021,2.385,1.021,2.234.1,1.31.977-1.188.024-.267,1.482a6.1,6.1,0,0,1,.633,4.412c-.267.983,2.952.486,4.31,1.216s1.429,3.7,2.124,3.334,1.844-1.013,1.978-1.8a14.013,14.013,0,0,0-.169-3.176c-.131-1.347-.49-3.817-1.218-4.8s1.307-1.379.977-1.8-.25-1.262,1.135-1.6,1.485-.027,2.239-.562.894-3.035,1.022-3.931a8.9,8.9,0,0,0-.558-3.567,22.382,22.382,0,0,0-2.174-3.567c-.5-.5-1.12-.643.232-2.218s.558-1.235.359-1.713a27.325,27.325,0,0,1-.754-2.723c-.27-1.067.558-2.245.065-3.76s-1.022-1.181-.924-1.518,3.231-.255,5.539-.03a14.35,14.35,0,0,0,3.894-.225,8.393,8.393,0,0,1,3.133,1.349c1.286.757,1.779.562,2.441,1.488s1.022,1.431,2.373,1.379a7.818,7.818,0,0,1,2.807.529,2.07,2.07,0,0,0-.787,2.164,23.384,23.384,0,0,1-.169,3.537c.03.673.4.7,1.022.787s2.314,1.461,4.054,2.023,2.21.394,2.771-.9.7-1.178,1.387-1.262.924.141,1.221-.141-.529-.839-.333-1.737a6.294,6.294,0,0,1,1.948-2.756c.79-.673,1.354.676,2.049,1.911s3.1,5.25,3.793,6.567,1.583,1.406.754,2.644-1.218,1.767.071,2.329,2.441,1.545,2.343,2.47-.365.956.062,1.208,1.978-.508,3.1-.057a11.274,11.274,0,0,1,3.267,1.6c.787.733.725.98-.4,1.347a21.04,21.04,0,0,0-2.8,1.04c-.561.307-1.449.9-1.42,1.376s-.232,1.265.662.643a12.5,12.5,0,0,1,3.4-1.518c1.057-.277.261-.024,1.218-.136s1.88.418,3.2.757.959,1.091.627,1.8a1.972,1.972,0,0,0-.1,2.161c.529.787-.232,1.488-1.387,2.441s-2.011,1.1-3.891,1.322-2.774,1.262-4.09,2.386-1.978.842-3.894.926-1.152-.869-1.746-.673a8.518,8.518,0,0,1-2.575.9,58.037,58.037,0,0,0-6.932.589c-1.577.424-1.084,1.4-1.479,2.221s-1.028.475-2.21.842-2.611,1.965-3.992,4.154a14.11,14.11,0,0,1-3.264,3.54,10.346,10.346,0,0,0,3.294-2.248c.956-1.067,4.948-3.594,6.172-4.379s3.858-1.936,4.485-1.773,2.18,1.268,2.18,1.827-.463,1.01-1.583,1.966-2.611,0-2.513.394a2.805,2.805,0,0,0,1.752,1.488c.858.2.82,1.151.82,1.629s-.493,1.1,1.485,2.614a6.415,6.415,0,0,0,4.82,1.542c1.449-.084.689.448,1.286.394s.728-1.1.924-1.936a3.362,3.362,0,0,1,1.054-2c.529-.364.924-1.037,1.093.252a4.068,4.068,0,0,1-1.36,3.456c-.752.391-.591.9-.591,1.287s-.858.423-2.9,1.463-2.7,1.29-3.065,1.151-1.123.168-2.109.98-2.043,1.914-2.768,1.884-1.357-.307-.365-1.235,1.322-2.218,2.308-2.669a4.314,4.314,0,0,1,2.275-.391c.823,0,.428-.451,1.09-.9s-.5-.312-1.619-.48-.261-1.067-.261-1.067l-1.158.562a14.982,14.982,0,0,1-2.21.9c-.46.057-.362.337-.5.5a7.284,7.284,0,0,1-1.779.282s-.858,1.6-2.147,1.824-.389.139-1.316.5-.754-.418-.959-.2a5.894,5.894,0,0,1-1.378,1.124c-1.028.7-1.625.929-2.343,3.483a5.672,5.672,0,0,0,.1,3.874c-.036.391-1.289-.252-1.648.054a5.944,5.944,0,0,1-2.278,1.545c-1.093.28-3.231.787-3.73,1.262s-.529,1.154-.76,2.134a20.212,20.212,0,0,1-1.515,3.288,1.491,1.491,0,0,0-.6-1.6c-.888-.673-.754-1.3-.754-1.3a3.838,3.838,0,0,0,.134,1.881c.33.956.986,1.911.689,2.948a4.865,4.865,0,0,1-1.547,2.7c-.7.364.163-.7.163-1.545s-.46-.9-.76-1.317-.3-1.488.232-2.924-.493-.556-1.09.4-1.016,2.72-.1,3.874-.591,1.037.036,2.7-.754,2.471-.5,2.723.992-.111,1.322.7-.653.448-.986.673-.166.535.03.983.6.168.431.307a3.466,3.466,0,0,1-1.485.956c-.852.252-.924-.141-1.452.421s-.921,1.067-1.485,1.713-.95.424-1.547.871-.823.814-1.553,1.376a17.719,17.719,0,0,0-3.261,2.525c-.894,1.1-.662,1.379-1.09,3.146s1.09,4.857,2.046,7.778,1.351,2.107,1.218,3.032a4.822,4.822,0,0,1-1.259,2.7c-.683.643-1.078-.451-2.035-1.1s-.2-1.091-1.126-2.441a4.448,4.448,0,0,1-.956-2.807,11.392,11.392,0,0,0-.754-3.456c-.5-1.067-1.556-2.413-3.139-1.879s-1.182.28-2.04.052-3.133-1.064-4.295-.5-4.809-.171-5.575,0-1.322.225-1.322.7-.324.559,1.028.9,1.155.7,1.06,1.235-1.1-.282-1.625-.478-1.019.394-1.942.394-1.09-.817-1.913-.928a7.5,7.5,0,0,1-1.951-.282,7.619,7.619,0,0,0-2.765-.7c-.924.057-4.491,2.218-6.172,3.369a9.747,9.747,0,0,0-3.359,3.2c-.4.928-.437,1.013.921,2.386s.725,1.154.457,1.938-1.054,1.743-2,3.763-.4,3.005.754,4.941a18.022,18.022,0,0,0,3.1,4.156,10.547,10.547,0,0,0,2.37,2,3.156,3.156,0,0,1,1.325.757c.359.337.261.478,1.521.168a15.261,15.261,0,0,1,3.062-.76,3.51,3.51,0,0,1,2.21.451c.493.423.561.171.561-.054a5.291,5.291,0,0,1,.529-1.295,11.978,11.978,0,0,0,1.515-2.609c.2-.842.2-2.527,1.357-2.639a32.874,32.874,0,0,1,5.869-.508c2.239.141,1.253,1.154.662,2.221s-.829,1.176-.829,1.993.267.815-.457,1.295-.267-.285-.564.193a4.5,4.5,0,0,1-1.218,1.04c.128-.111.457.812.457,1.262s-.1.673-.1,1.77-2.343,2.218-2.343,2.218a4.934,4.934,0,0,0,2.112.451,10.5,10.5,0,0,1,4.09.559c1.322.559,3.828-.448,5.679.4s1.188,1.347,1.316,2.131a22.253,22.253,0,0,1,.2,4.1c-.14.616-1,2.359-1.458,3.594s1.319,2.137,2.97,3.144a14.326,14.326,0,0,0,3.962,1.686c.846.223,2.438-1.181,5.343-1.013a4.518,4.518,0,0,1,3.888,2.419,10.885,10.885,0,0,1,1.651-3.315c1.325-1.909,1.381-2.471,3.163-3.089s2.379-.73,5.284-1.572,2.373-.225,3.888-.114a46.31,46.31,0,0,1,8.515,1.349c3.493.956,8.839,1.235,10.882,2.023s2.97,2.975,5.082,4.77,4.749,3.426,5.869,4.27,7.393,1.629,8.78,2.136,3.3,2.582,3.427,3.817,1.521,1.852,3.428,2.582,2.513,1.572,3.766,3.817.858,2.864,2.569,3.426,13.6,3.483,16.561,4.55,6.73,3.931,7.722,4.268,2.771-.28,3.561.111-.463,2.53.529,4.045,1.054,1.629.463,2.753-2.97,3.817-3.894,5.164-2.9,2.191-4.024,2.756-2.112,0-1.12,1.121.062,2.08-.8,3.09.071.9-.2,4.156,0,6.8-.4,8.2-2.7-1.235-5.343,1.8-3.356,5.335-4.942,5.671a21.867,21.867,0,0,0-6.531,3.089,7.269,7.269,0,0,0-2.314,3.032c-.79,1.572-1.577,4.773-2.436,6.741s-2.245,3.087-5.414,5.726-4.553,5.335-6.6,7.414-1.515,1.626-1.945,2.02c-1.09,1-5.593-1.618-4.431-.166.858,1.067-.481,0,.244,1.007s1.253,1.406-.33,3.2-3.413,1.439-4.663,1.724-3.122-1.184-3.255-.451-.852,2.544-1.844,2.994-3.626,1.127-3.564,1.406c1.247,5.318,3.814,5.875,1.1,5.631-7.437-.665-2.13-2.281-7.3,7.62-.79,1.515-1.58.73-1.452,2.525s0,3.149,1.063,4.273.324,1.064-1.455,2.582-1.916,1.29-3.564,3.594-3.228,2.191-2.637,3.928.725,4.328,1.717,6.909,3.032,2.131,6.264,3.931,3.632.842,5.215,1.289-1.126.565-3.962,1.01-4.681.956-6.665.565-6.659-2.864-8.242-3.931-4.155-2.975-5.082-4.83-1.586-3.708-2.768-6.233-.336-4.1.2-9.659.924-9.882,1.782-12.86,3.5-16.229,4.218-19.658,4.1-17.35,4.357-19.544a47.8,47.8,0,0,1,.992-6.062,31.883,31.883,0,0,0,.2-6.85c0-.225-.2-.4-.927-2.473a6.4,6.4,0,0,0-3.558-3.82c-1.645-.9-3.368-2.023-4.687-2.864a19.561,19.561,0,0,1-4.223-3.538c-1.322-1.517-2.575-4.6-3.231-5.9a77.837,77.837,0,0,0-5.34-8.7c-2.245-3.032-2.379-3.089-3.5-6.293s.986-3.255,1.387-5.052,1.711-3.594,3.166-6.122,3.365-3.258,4.485-5.5.267-2.248-.134-4.439.134-1.852-.6-3.032-1.114-2.639-1.776-3.033-1.648-.673-2.245-.057-1.645,2.416-2.308,2.528-.924-.562-1.319-.956-2.308-.391-2.709-.785-1.381-.451-2.04-.73a30.539,30.539,0,0,1-3.962-2.08,4.639,4.639,0,0,1-1.648-3.366c0-1.461-1.381-2.025-4.482-4.045s-4.422-2.3-8.186-3.146-5.275-3.255-6.534-3.931-1.12-1.4-3.891-1.121-6.133-1.124-8.251-1.909-5.869-1.347-7.452-2.3-4.351-1.289-5.542-3.592-.992-1.4-.526-3.429-2.7-3.706-4.618-5.614-3.365-2.191-4.357-4.55-2.435-2.245-4.351-3.931-1.981-3.817-2.771-5.726-6.068-4.661-6.068-4.661,1.381,3.2,1.978,4.49A46.94,46.94,0,0,0,132.424,289c1.583,2.3,2.97,2.864,4.419,5.166s.071,3.708-.463,2.81-2.637-1.292-2.637-2.356a5.033,5.033,0,0,0-.989-2.587c-.457-.842-2.5-1.8-4.488-3.258s-3.359-2.134-2.112-2.134,3.038,1.067,2.709.394-2.575-2.75-3.632-4.213-1.387-3.087-2.441-5.557-4.942-4.83-6.864-5-2.435-1.01-3.1-2.8-.787-3.706-1.645-5.112-4.556-6.122-4.618-7.916-1.126-7.023.2-9.942.986-9.437.79-10.726-2.575-3.763-2.575-4.721,1.393-.391,2.447-.111,3.294,1.124,3.294,1.124a26.055,26.055,0,0,0-2.765-3.931,15.843,15.843,0,0,0-5.545-2.584c-1.387-.277-3.169-.725-3.894-1.795s-1.515-2.47-2.046-3.369-2.774-1.966-3.3-2.921-.4-2.81-1.12-3.763a2.634,2.634,0,0,0-2.976-1.121c-1.188.391-1.577-.562-2.5-1.968a6.788,6.788,0,0,0-3.57-2.242,9.66,9.66,0,0,1-2.765-3.261c-.134-.619-3.371-3.877-4.422-4.55s-11.28-3.706-11.542-3.706a22.016,22.016,0,0,1-4.027.168c-.793-.225-3.5-2.359-4.877-2.807s-2.385.508-3.041,1.908-3.891,3.82-5.673,4.887-3.237,1.181-3.1.619a9.784,9.784,0,0,1,.662-2.81c.591-1.347.921-1.74,2.768-2.582s1.779-.9,1.06-.842-1.259-.111.2-.9,2.043-.9,1.978-1.572-3.166.9-5.15,2.359a17.119,17.119,0,0,0-4.88,5.052c-1.717,2.582.2,1.629-1.25,3.315s-6.4,5.109-7.85,6.4-7.455,4.156-9.9,4.832-3.427.953-4.618,1.851-4.152,1.181-3.166.562,2.836-2.023,4.1-2.7a56.312,56.312,0,0,1,5.6-2.245,18.292,18.292,0,0,0,5.153-3.315,29.549,29.549,0,0,0,3.231-4.379c.921-1.349,1.12-1.966-.79-1.4a8.89,8.89,0,0,1-4.883,0c-.992-.339-3.57,1.067-4.491.448s.068-1.911-.529-2.525-2.64-.225-3.956-.451-3.166-1.181-3.166-2.864-1.319-3.144-.6-4.439,1.788-1.629,2.97-2.356a18.364,18.364,0,0,1,5.147-1.683,3.951,3.951,0,0,0,2.18-1.184c.594-.559-1.387-2.582-1.387-2.582s.333-.223,1.12-.673.2-1.406-1.188-1.235-4.351,1.461-6.2,1.909-4.351.171-4.286-.562.463-1.178-.2-1.737-1.191-1.184-.529-1.463,4.749-2.356,4.749-2.356a6.053,6.053,0,0,0,3.035,1.626c1.583.168,4.948-2.527,4.948-2.527-2.112-1.176-1.648-1.515-1.648-1.515s-3.433-.054-4.223-.5a3.146,3.146,0,0,1-1.253-2.134c-.2-.787-3.561-1.406-2.637-2.7s2.637-1.74,3.757-3.032,2.112-3.708,5.349-5.055,7.125-2.582,8.842-3.706,2.5-.057,3.166.111,4.752-.168,6.329-.168,1.85,1.626,2.379,2.02,14.449.79,14.449.79,11.806.168,14.182.785,6.659,2.248,6.659,2.248C81.4,165.42,81.161,162.526,82.773,162.526ZM241.417,97.381a8.6,8.6,0,0,1-5.934,5.728,133.9,133.9,0,0,0-13.858,4.944c-.4.225.529,2.7,1.711,3.931s2.311,2.077,3.365,3.315,2.908,1.121,4.357,2.411,2.507.844,6.469.9,2.9.334,7.321.559,9.044.562,10.556,1.8,3.695,6.065,5.082,8.983,3.828,7.754,3.828,8.2S262.8,142.14,262.8,142.7s.787,1.518,1.518,2.3.327,1.4.193,2.134a7.156,7.156,0,0,0,.927,2.807c.134.225,2.106-1.795,3.365-2.134s4.357,2.023,4.357,3.651c0,3.692,1.1,2.435-5.477,6.8-.87.576-1.717,5-1.054,7.132s2.239,4.661,3.49,7.694,4.948,7.3,6.139,9.268,1.521,4.661,4.152,5.278,5.153,1.461,7.06,1.854,3.169.953,4.09-.673,2.774-7.808,4.295-12.3-.134-5.84,3.427-6.852,9.234-3.032,10.755-3.649,1.253-5.055,4.618-6.516a41.109,41.109,0,0,1,7.122-2.3,46.568,46.568,0,0,0,11.218-5c3.3-2.134,4.223-1.007,5.414-2.973s-1.191-4.832-1.452-7.754,1.057-3.084,1.711-5.726.995-4.379,3.564-6.176,3.956-2.807,3.5-4.493-1.779-4.213-1.779-6.065.463-.785-.591-3.369-1.057-2.921-.071-5.337,3.632-1.794,3.433-2.864-4.22-2.693-4.286-5.674.725-3.871,1.381-4.6,7.389-5.614,7.853-6.065-.131-1.686,3.169-3.144,4.419-2.416,5.673-2.864,3.231-.394-.6-1.406-4.681-1.461-7.188-1.178-3.365,1.572-7.856,1.966a42.834,42.834,0,0,0-9.564,2.3s1.521-1.235.2-2.416,3.433-5.052,4.229-5.5-6.207-2.02-9.84-2.639-10.749-2.585-14.838-2.3-10.092.225-12.142.842-1.779,3.032-4.087,3.144-6.6-1.235-9.9-.785-8.578,2.528-9.169,2.642,2.046,1.569,3.757,1.908,3.956,3.592,3.956,3.592-4.61-1.4-9.3-2.585-10.161,0-12.076.51a33.026,33.026,0,0,1-8.242,1.626c-3.831.168-8.18,3.03-10.363,4.379s-8.967,4.944-10.683,5.785-1.057,1.235.787,1.686S241.417,97.381,241.417,97.381Zm-97.775,46.426c.523,2.058.523,5.017-.707,3.744s-2.245-3.858-4.223-2.81-4.128.752-3.781.527-.042-1.347-1.057-1.686-1.625.187-2.679.749-4.4,1.309-3.035.337.924-1.5.437-2.62-3.956.785-5.806,1.985-2.94,3.032-4.042,4.268-.309,2.023,1.363,2.47,4.354.747,2.109,1.5-3.959,1.271-2.813,1.909a9.353,9.353,0,0,0,5.1.521,15.542,15.542,0,0,1,6.822.079,21.467,21.467,0,0,0,5.052.749,10.568,10.568,0,0,1-3.294,1.01c-2.112.337-5.988,0-7.966.337s-5.1.823-4.31,1.5a8.143,8.143,0,0,0,4.137,2.508c2.724.79,3.211.038,4.835.413s.748,2.058,1.191,2.324,3.52-.225,6.6-.749,1.937-.975,4.354-1.537,2.507-2.245,3.918-2.62.392.858,2.064,1.235.749.489,2.551.747,1.452.9,3.208.785,3.828-1.192,3.564-1.382a1.328,1.328,0,0,1-.35-1.423c.175-.749-1.761.149-2.465.524s-.653-1.01.838-1.686,2.819,0,3.695,0,.092-2.321-1.5-2.7-2.287-1.273-4.663-2.471-1.143-1.721-1.847-3.293-2.2-6.217-3.52-7.04-2.727-.6-4.042-1.423A7.578,7.578,0,0,0,143.642,143.807Zm-36.511-3.182c.576,1.5.662.559-.481,2.207s-.487,2.245-1.274,3.48-2.9,2.886-2.245,3.708,2.771,1.311,3.653,1.947,1.758,1.947,3.335,1.461a17.987,17.987,0,0,0,3.214-1.349c1.1-.524,2.026-1.124,1.978-2.432s-.086-1.947.359-1.835,1.138.711,1.491-.147A7.878,7.878,0,0,1,118.878,145c.743-.673,2.9-1.349,3.912-2.134s2.732-1.648,3.214-2.321-.882-1.2-1.717-1.5-1.8-1.5-3.736-1.5-2.994,1.347-2.9.747-1.319-.9-2.109-1.159a7.351,7.351,0,0,0-4.048-.415,30.71,30.71,0,0,0-5.545.939C104.232,138.114,106.564,139.127,107.131,140.625ZM164.4,158.559c-.261.334-1.4.673-2.106,1.423s1.491.337,2.192.562,1.236.858,1.8,1.048a11.438,11.438,0,0,0,4.933-.263c1.268-.562,1.4-.749,1.268-1.01a18.847,18.847,0,0,0-4.482-3.407c-1.85-.9-1.892-.937-2.287-.711S164.667,158.22,164.4,158.559Zm-8.313-17.524c-1.2.546-2.058,1.2-.042,2.137a33.531,33.531,0,0,1,4.042,2.509c1.366.785,1.939,3.03,4.8,2.02s4-2.207,4.4-3.255-.4-1.273-1.1-2.248-.882-1.385-2.332-1.235-1.936.147-1.936.147a7.987,7.987,0,0,1,2.551-1.833c1.583-.711.261-1.2,1.01-1.873s-1.892-1.007-3.035-.747-1.188-.076-3.08-.149-4.877,1.5-4.749,2.058,1.541.339,2.86,1.013,1.717.6.392,2.508-2.017-.451-2.459-.755S157.322,140.473,156.087,141.035Zm-8.441-3.44c-1.978.166-2.646,1.42-1.892,1.6s1.23-.185,2.415.977,2.245,1.794,2.727-.111S150.681,137.329,147.646,137.6ZM115.887,123.1c-2.207,1.607-2.64,2.883-4.351,3.893s-1.322,1.873-.748,2.432,2.284-.038,3.074-.413,1.449-1.306,1.936-.747,2.507-1.909,3.3-2.734a6.644,6.644,0,0,1,2.245-1.645c.22.035-.754.972-.4,1.756s1.931.825,3.341-.521.134-2.585,1.236-3.632,2.02-.9-.134-1.838a3.329,3.329,0,0,0-3.962.6C120.989,120.742,120.2,119.957,115.887,123.1Zm13.41,2.544a9.885,9.885,0,0,0-3.867,1.051c-2.067.823-2.949,2.956-3.43,4.116s.22,1.162,2.112,1.838,4.532-.187,5.147-1.8,1.369.375,1.013,1.2,1.319.073,2.112-.3a13.6,13.6,0,0,1,3.341-.524,12.312,12.312,0,0,1-4.007,2.1,30.978,30.978,0,0,1-4.31,1.045c-.57.076.532.863,2.946,1.311s3.876-1.349,7.348-2.546,3.3-1.42,4.446-1.121,2.37-.524,3.781-.825,1.978.187,2.6-1.724,1.711-3.744-.267-3.855-2.112-.111-2.379,1.947-.44.787-.44.787-1.319-1.794-2.112-2.734-1.363-2.394-2.239-3.179-1.277.334-2.64,1.721-.267,1.909,1.1,2.508,2.332,2.131,1.675,2.546-1.411-.076-3.915.185-2.421-.711-3.127-1.01,1.188-.937-1.5-1.947S130.185,125.609,129.3,125.647Zm-8.132,1.949c.279-.434-3.341,1.947-3.891,2.712s.549.635,1.651.6S120.244,129.036,121.165,127.6Zm6.95-4.96c-.906.369-.906.652.567.8s2.337-.445,2.026-1.007S128.839,122.333,128.115,122.637Zm7.5-7.113c-.968.144-3.828,1.064-3.983,1.512a3.311,3.311,0,0,0,.463,2.191c.44.768.6.88,3.056.282s4.161-1.762,3.341-1.968a20.156,20.156,0,0,0-2.04-.635c-.728-.092.636-.448,2.26-.915S140.895,114.715,135.614,115.524ZM127.28,116.7c-.7.293-.947.3.5.8s3.015.47,2.813.057A2.524,2.524,0,0,0,127.28,116.7Zm5.673-3.689a3.86,3.86,0,0,0-2,1.759c-.309.356,1.559-.261,2.421-.451s1.054.282,1.889-.391,2.489.022,3.986-.282,1.735-1.2,1.4-1.982S136.891,111.59,132.953,113.013ZM147.86,116.4c-.4.179-.261.768.1,1.461s.44.521,1.182.787a5.768,5.768,0,0,1,1.669.969c.181.171.285.231.6-.448s-.157-.559-.992-1.461S148.923,115.934,147.86,116.4Zm5.082,5.878a2.757,2.757,0,0,0-2.2.5c-.419.187.22.616.5,1.423s.048,1.067,1.717,1.181,2.177-.168,2.311-1.143S154,122.542,152.941,122.278Zm6.493,1.759c-1.04-.692-1.544-1.254-2.6-.861s-.175.88-.175,1.146,1.277-.041,1.3.6.41.9-1.126.972-1.96.019-2.554.429,1.149-.052,1.678.584,1.426.711,2.9.5,3.475-.5,3.475-.5a11.087,11.087,0,0,0-1.518,1.591c-.437.652-.615,1.591.154,2.058s.858-.486,2.994-.524,2.768-1.045,2.768-1.045a1.767,1.767,0,0,1-.419-1.406,3.353,3.353,0,0,0-.024-1.2,8.6,8.6,0,0,1,1.057.785s-.151-.578-.457-1.629-.065-1.124-.4-2.544-.261-1.724-1.868-1.686-2.7.543-4.027.543-1.889.225-.921.673,1.1.991,1.559,1.5.377,1.721.4,1.664S159.434,124.038,159.434,124.038Zm-8.028,5.337a.271.271,0,0,0-.071.027,1.716,1.716,0,0,0-.945,1.45c-.042.489.882.2,2.355-.263S153.494,128.759,151.406,129.375Zm20.761-2.544a10.656,10.656,0,0,0-2.908,2.153c-.7.725-.086.82,1.74,1.664s3.784,1.007,4.636.128S175.241,125.292,172.167,126.831Zm8.485-6.537c-2.343.214-1.616.535-4.321-.28a27.71,27.71,0,0,0-7.024-.9c-.927,0-.493.394.463,1.827s1.218,1.938,3.2,1.488,3.6-.76,5.049,1.151,2.21,2.5,1.022,3.2-.627,1.827.068,3.288,2.275,1.4,4.485,1.4,16.2-.2,18.376-.562,4.119-2.05,5.278-2.807,1.782-1.938.2-2.81a13.055,13.055,0,0,0-5.61-1.686c-1.785,0-3.3.844-6,1.1s-2.112,1.433-4.556,1.488-1.25,1.04-4.256-.084-5.21-2.525-3.787-2.723,2.569-.366,1.779-.98S182.829,120.1,180.652,120.294ZM152.68,109.85c1.452.448,1.818.787.2,1.178s-2.872,1.433-1.253,1.235a18.611,18.611,0,0,1,5.076.451c2.082.31,1.916.111,2.836,1.178s1.916,1.067,3.335.757,1.613-.391.695-1.319-1.883-2.639-3.136-3.315-2.311-1.626-3.561-1.512-1.55.136-2.64-1.211-1.942-.7-3.534-.337-2.088,1.4-2.7,1.854C146.74,109.739,151.231,109.4,152.68,109.85Zm19.005-13.761c-1.717,1.966-3.1,3.624-1.161,3.822s2.8-.144,2.934.421-.33.953-3.228.953-2.014.589-.4,2.332,1.779,1.151,4.25,1.091,3.3-.869,5.349-.388,2.67.953.826,1.461-6.207,1.458-5.215,2.3,4.06,2.864,5.447,3.06,1.675-.842,4.681-.535,2.278.595,2.6-.163,1.984-2.7,2.308-3.4,1.161-1.151,2.807-1.49,2.177-.812.627-1.322-3.3-.728-3.13-1.121,1.12-1.545.457-2.134-1.711-.562-2.575-.869-1.809-1.743-2.9-2.359-2.04-.673-3.362-1.6-3.43-3.187-6.071-3.06C174.157,93.17,173.4,94.126,171.686,96.088Zm-3.371,16.43c-.662.307-2.308.361-1.084,1.29s.888.953,2.435.421a12.577,12.577,0,0,0,4-2.245c.19-.394-1.556-1.151-2.744-1.49s-2.008-1.205-4.485-1.824C162.838,107.773,168.977,112.206,168.315,112.519ZM249.023,83.3c-2.727-.676-12.489-2.4-15.658-1.724s-2.991-1.5-7.39-.972-11.167.223-13.279.527,1.051,1.124,2.2,1.8-5.453-.752-10.473.524-8.272,1.947-2.9,3.817,6.068,2.4,6.068,2.4a80.016,80.016,0,0,1-9.763-2.175c-2.908-1.045-1.319-.969-6.778.453s-10.731,2.169-10.464,3.668,4.4,3.521,7.122,4.04,8.361-.747,8.8-.9-2.2,2.02-2.2,2.02,2.813-.524,5.982-1.271,5.631-1.572,8.625-2.546a27.948,27.948,0,0,0,3.517-1.273s-5.189,3.67-8.794,4.944a42.937,42.937,0,0,1-10.472,2.175c-2.2.073-1.85,1.347.353,2.392s3.87,3.3,5.013,4.045a3.078,3.078,0,0,1,1.322,1.944,6.556,6.556,0,0,0-7.214,0c-3.784,2.47-3.255,3.744-2.287,4.048s4.31.595,4.924,1.642,5.013-.969,5.013-.969-2.195,2.544-4.31,2.544-2.02-1.648-5.1-1.347-2.908.972-1.583,1.947,2.376,1.273.086,2.248-3.341,1.273-3.427,2.468,2.985,1.2,4.924,1.2,3.781-.152,7.3-.228,3.074-1.124,4.4-1.124,2.64.377,2.112,1.577.523.451,4.4-.823,2.106-3.225,1.85-3.9-1.678-.9-2.554-1.273,2.64-3.668,2.106-4.789,4.315-.225,6.51-2.845,1.408-4.572-.175-5.017,2.908-.149,4.31-.9,4.491-1.645,5.72-3.07,1.672-1.944-1.316-1.645,4.3-1.2,7.823-3.3,7.571-4.566,8.447-5.164,1.678-.3-2.465-.076-9.062-.3-6.329-.6,10.82-1.2,12.932-2.623A26.3,26.3,0,0,1,249.023,83.3Zm-49.256,51.967c-4.4-.377-10.82-1.347-12.142,2.1a100.909,100.909,0,0,0-3.523,12.5c-.172,1.423,5.281,3.518,9.062,3.668s9.944.375,8.714-.445-.181-1.273,3.341-1.127,3.87-.673,3.87-1.347.615.823,3.08,2.02,4.577,4.569,6.775,6.516,7.122,4.569,6.154,6.065,1.057,6.741-6.513,7.938-8,.375-7.912,1.947.434,2.245,3.427,2.245,7.128-2.245,8.533-.6a9.176,9.176,0,0,0,4.577,2.622c1.23.375-1.5,1.048-2.2,1.273s1.5.448,5.807,2.321,9.5,2.1,6.944.749-3.778-3.817-4.924-4.642-.089-.152,1.937.3A13,13,0,0,1,239.528,182c.876.673,1.316-.225,1.931-2.848s-.261-2.62-3.695-4.716-4.485-3.744-4.838-5.242,1.764-1.8,2.646-2.848,3.341,1.873,5.011,3.6,3.074,4.718,4.4,2.544a25.6,25.6,0,0,0,2.545-8.161c0-1.124-1.316.076-6.944-2.471s-8.533-3.521-9.062-3.521,1.5-.972,3.962-2.093,3.517-.975-1.761-5.541-6.778-5.541-10.205-5.845-4.4-3.594-6.864-4.713-8.177,1.347-9.855,1.721-1.144.972-3.255-1.794S199.768,135.272,199.768,135.272Zm3.956,0c-2.186.239,1.316,3.893,4.131,4.042a14.518,14.518,0,0,0,5.807-1.273C214.282,137.891,207.151,134.894,203.724,135.272Zm-9.872,37.139a17.629,17.629,0,0,0-1.387,4.607,7.791,7.791,0,0,1-.725,2.693c-.333.956,1.054-.168,1.978,1.235s.523,1.8,2.174.168A5.465,5.465,0,0,1,201.7,179.6c2.311.673,4.09.956,3.3-.337s-1.85-1.178-3.436-2.921a9.365,9.365,0,0,0-4.743-2.867C194.837,172.8,194.638,170.67,193.851,172.41Zm16.6,131.2c-.68-1.3-1.708-3.4-5.982-4.129s-5.726.728-7.3,1.216,1.473.725,3.511,0,3.585-.16,3.861.174-.683.54-1.031.187-.413.869,1.883,1.626,2.86,1.124,3.095,2.025a5.331,5.331,0,0,0,.737,2.136c.52.755.719,1.07-.244,1.4s-.627.285.08.687a10.073,10.073,0,0,0,4.158,1.227c2.014.155,2.676.5,1.277-1.186S210.662,304.025,210.448,303.615Zm6.392,8.226a2.744,2.744,0,0,1,.713,2.78c-.08.6-1.28.13-3.493-.4s-1.865-.272.053.676,3.163.717,3.074,1.979,1.764.117,2.581-.616.76-.084,4.173.388,4.111,1.034,3.567-.334,1.565-1.257-1.467-2.565S215.574,310.655,216.84,311.841Zm-9.718.776c-1.28-1.3-2.887-1.488-2.9-.38s.434,1.043,1.619,1.341S207.947,313.448,207.122,312.617Zm24.782,5.633c-1.4-.434-1.681.527-.754,1.325s2.355.521,3.76.464S234.339,319.022,231.9,318.251Zm-16.05-156.705c-1.85.711-2.934,1.2-1.322,3.144s2.575,3.144,3.2,1.74S218.987,160.335,215.854,161.546ZM201.045,182.33c-2.792.413-3.7.489-3.261,1.914s1.188,1.195,3.08.334S204.077,181.885,201.045,182.33Zm5.8,2.175c-.475.133-.615,1.124,0,2.02s1.8-.3,2.331-1.385S208.607,184.016,206.845,184.5Zm-30.437-69.114c-2.634.081-6.6.937-4.4.972a68.937,68.937,0,0,0,7.571.263c3.561-.187,3.912-.41,4-1.987S181.249,115.239,176.408,115.391Zm-16.493-13.216c-2.691.763-2.026,1.271,1.143,2.544s3.252.673,2.9-1.724S161.5,101.724,159.915,102.175ZM347.93,164.844c-3.329.847-4.449.339-5.082,1.884s-1.939.719-2.694.909-1.815,4.5-2.343,3.86a11.736,11.736,0,0,1-1.491-2.47c-.763-1.485.255-1.222-1.212-2.785s-4.36-1.385-4.565-.741,2,1.173,1.253,1.9a37.964,37.964,0,0,1-3.225,2.131c-.677.527,1.307.3,2.551.027s2.1.855,2.611,1.653-.573,1.569-1.114,1.957,1.818.293,2.756.453a1.1,1.1,0,0,1,.79,1.857c-.644.972,2.795.138,4.7.038s2.4,1.192,5.278.367,4.247-.763,6.87-2.541,2.418-1.357,4.158-2.5,1.322-1.5,1.4-2.764,1.146.356.737-1.558-2.554-1.4-4.057-1.547-1.443-1.222-2.2-1.561S351.31,163.978,347.93,164.844ZM570.614,329.8a5.592,5.592,0,0,0-.353,1.985c0,1.013-.128,2.1-.042,3.106s.151,1.724.766,1.947a2.214,2.214,0,0,0,2.049.022c1.013-.429,1.96-1.2,1.455-2.359a31.165,31.165,0,0,0-2.008-3.613C571.938,330.025,570.881,328.939,570.614,329.8Zm-.8-1.387c.11.429.261.337.481.635s.463.038.157-.356-.273-.44-.273-.44-.389-.122-.389.233m94.995,59.688c-.012.043-.068.071-.1.1-1.809,1.675-3.451,1.205-6.555,2.085-3.16.9-8.643,3.82-9.038,5.112s0,1.46-.4,1.289a4.614,4.614,0,0,1-1.06-.953,5.712,5.712,0,0,0-.657,2.975c.2,1.4.924,2.248.858,4.045s-.793,2.861-.725,4.1,2.3,3.592,2.9,5.055.992,1.064,1.316,3.706,1.85,4.1.33,5.5-2.637,1.121-.787,2.582,3.365,2.416,6.329,1.463,2.18-1.8,4.488-2.248,2.774-.9,4.752-1.015,3.365.06,4.1-1.232.19-1.235,2.168-2.134,1.782-1.124,3.1-1.347,2.177.619,3.956-.673.463-1.4,4.422-1.4a20.42,20.42,0,0,1,7.06.953c1.455.451,3.828,1.629,4.419,2.47s1.387,1.854,1.645,1.854.6.054,1.521-.787a39.267,39.267,0,0,1,3.561-2.525,5.61,5.61,0,0,1-.725,2.47,2.961,2.961,0,0,0-.6,1.965c0,.337,1.521-1.07,1.723-1.124s.395,2.47.591,2.7.8.111,1.387.844a9.2,9.2,0,0,1,1.978,2.693c.594,1.4,3.1,2.807,4.687,3.032a14.326,14.326,0,0,0,4.155-.06c1.188-.166,1.253-1.458,2.5-.95s-.062,1.572,2.908,1.347a8.3,8.3,0,0,0,4.948-1.854c1.182-.728,1.316,1.013,2.836-.9s1.782-1.461,2.043-3.76.2-2.753,1.645-4.944,1.788-1.124,2.78-4.322,2.24-6.233,2.112-8.875.056-.9-.6-3.877-.2-2.636-2.311-3.874-2.638-.9-3.166-2.639.134-2.245-.858-2.245-1.85.391-2.441-.785a7.1,7.1,0,0,0-1.648-2.753c-1.12-1.124-2.177-.9-4.223-1.743s-.992-1.067-.992-2.525.116-3.016-1.515-3.692-.659.377-.659-2.02,0-2.058-1.319-2.47-1.764-.375-2.6-1.835a51.306,51.306,0,0,1-2.326-4.827c-.4-.975-.882.111-1.411.823a7.111,7.111,0,0,0-1.274,3.744c0,1.461.7,2.283.7,4.23s-1.491,3.9-2.418,5.02-1.672.111-2.468-.193-.962-1.382-2.632-2.131-4.752-1.423-6.16-2.582-.443-1.2,0-2.4a6.066,6.066,0,0,1,2.109-2.956c1.057-.787.749-1.089-.567-1.762s-3.166-.711-5.411-.711-3.561-.147-3.433,1.01,1.449,1.61-.437,1.273-3.52-.486-4.357.337-1.016,1.314-1.5,3.07.134,1.873-.654,1.873-3.918-1.385-4.972-1.8-1.624-.372-2.86.673a66.159,66.159,0,0,1-7.084,5.28C666.3,383.751,666.387,383.567,664.78,388.174Zm-58.692-50.618c-.936-.114-1.452-.337-.309,1.01a16.421,16.421,0,0,0,2.551,2.544c1.1.937,1.5-.673,2.335,1.124s.526,1.835,1.363,2.509,1.536.863,1.755,1.537a4.591,4.591,0,0,0,1.452,2.473c.968.747.968.633,1.535,2.093s1.456,2.508,1.9,3.744,2.946,2.4,4.217,3.893,3.434,3.668,3.787,3.07,1.271,0,1.933-.223.879-1.089,1.322-3.182-.4-3.07-1.016-3.559-1.758-.6-2.064-1.051-.834-1.982-1.583-2.47-.93.038-.93-1.159.882-1.083-.214-1.759a5.557,5.557,0,0,1-1.589-1.5c-.348-.334-2.72-.861-3.341-1.461s-3.208-1.683-4.437-2.807-2.6-2.02-2.994-2.845S610.131,338.042,606.088,337.556Zm25.6,24.148c-1.057,0-1.586-.562-2.287.6s-.615,1.162.481,1.162.882.524.838.676-.529-.117,1.716.709a6,6,0,0,0,4.443.187c.615-.3.835.747,3.915,1.2s4.7-.261,6.683.187,1.5-.223.089-1.2-1.277-.451-2.688-1.387-3.38-.972-4.3-1.124.79.9-2.026.562-1.8.225-3.252-.635-1.458-1.01-2.427-1.162S631.687,361.7,631.687,361.7Zm22.344,4.116c-.793.225-2.418.638-1.669.939s.166.483,2.5.3,4.357-.448,4.66-.9-.395-.152-1.363-.413-.882.185-2.2.339A3.052,3.052,0,0,1,654.031,365.82Zm8.18-.149c-1.559.176-1.363.489-.134.825a6.914,6.914,0,0,0,3.3.263,16.348,16.348,0,0,1,2.774-.714c1.711-.263,2.287-.225,3.644-.375l1.369-.147s-.134-.263-1.057-.225-1.577.073-2.507.073-2.5.749-3.166.714-1.931-.415-2.245-.228S663.886,365.486,662.211,365.67Zm8.8,1.835a.148.148,0,0,0-.056.038c-1.093.679-1.137.869-1.039,1.409a.947.947,0,0,1-.116.785,4.892,4.892,0,0,0,2.819-1.192,4.679,4.679,0,0,1,2.525-1.518,9.588,9.588,0,0,0,2.673-1.656,8.726,8.726,0,0,1-2.076.114,4.126,4.126,0,0,0-2.513.785C672.885,366.536,673.568,366.607,671.011,367.506Zm-9.2.589c-1.146-.749-2.257-.643-2.343-.179s-.992.434.627.98,3.151,1.265,3.035.519S662.309,368.418,661.816,368.095ZM651.3,336.88c-.659.863.615.635-.354,1.387s-1.711.41-2.679,1.534a13.737,13.737,0,0,1-3.035,2.324c-.615.41-2.6.893-3.481,1.982a1.034,1.034,0,0,0,.315,1.683,3.079,3.079,0,0,1-1.939-.263c-1.408-.483-1.494-1.083-1.494-1.083s-1.01-.038-1.58,1.346-.888,1.534.122,2.359-.695.863-.481,1.425.226,1.61.835,1.721.751-.524,1.5.334.128,3.293,1.1,3.41,1.672-.263,2.507.076a3.267,3.267,0,0,0,2.554.3,4.084,4.084,0,0,1,2.857.3,10.138,10.138,0,0,0,3.65.861c1.016-.076,1.182.149,1.363-1.162s.047-2.546,1.277-3.554,1.274-1.013,1.363-1.949a4.889,4.889,0,0,1,.835-2.88c.742-.975,1.188.562,1.583-.19s.8-.747.567-1.121-1.36-.375-1.8-1.086.134-1.086-.4-2.544-.829-.9-.086-1.724,1.363-.975,1.449-1.612.395-.673,1.325-1.273-.145-.318-1.028-.915-2.525-2.842-3.549-2.826C654.049,333.744,651.961,336.019,651.3,336.88Zm129.964,79.482c-.422-.28-.784-.073.187.975s1.048.749,1.663.787,1.15,2.1,1.5,2.62a9.21,9.21,0,0,0,1.01,1.159,10.322,10.322,0,0,1,.048,3.258c-.309,1.01-.971,1.463-1.185,2.4s1.01.673,1.8.975.657.3.351,1.124-1.229,1.195-1.229,1.347,1.8,1.086,2.726.073a15.09,15.09,0,0,0,2.771-3.592c.4-1.086-.707-.6.57-1.387s1.1-.413,1.761-1.385,1.357-1.982.615-2.509-1.583.638-2.251.861a2.476,2.476,0,0,1-2.106-.149c-.921-.413-1.1-.413-1.449-1.162a4.144,4.144,0,0,0-.793-1.159s-.267,1.271-.924.863-.487-.863-.968-1.575-.481-.939-.8-1.458-.039-1.539-1.577-1.686S781.67,416.625,781.269,416.362Zm.267,13.593a16.033,16.033,0,0,0-2.326,2.357,10.127,10.127,0,0,0-1.63,2.66c-.348.749-1.625,1.645-3.737,2.658s-2.908,1.423-3.609,2.359-3.214,3.855-3.514,4.192,1.182.676,2.727.676,3.956,1.273,5.272-.035,2.64-4.422,3.475-5.544a14.8,14.8,0,0,1,2.946-2.623c1.316-1.086,3.522-3.108,3.522-3.893a6.735,6.735,0,0,0-.576-2.061,1.676,1.676,0,0,1-1.63.752C781.317,431.342,781.537,429.955,781.537,429.955Zm-10.371,14.383c-1.544-.752-1.844.641-2.094,2.071s.665.214,2-.429S771.756,444.623,771.165,444.338Zm-52.3-9.814c-1.741-.532-1.449.972-1.188,2.093a7.909,7.909,0,0,0,1.277,2.959c.659.937,3.119,1.273,4.093.861s1.666-1.8,2.635-3.108a5.3,5.3,0,0,0,1.236-3.589c-.178-.793-1.408.709-2.2,1.043s-1.844,1.2-3.341.825A13.556,13.556,0,0,1,718.862,434.524Zm-21.9-80.386c-1.4.3-2.112-.823-3.252-2.994s-2.026-2.468-4.927-1.5-2.465.746-.526,1.42,2.2.9,2.459.9,3.08.372,2.465.749-3.255.747-1.583,1.8.968.3,5.364,2.318,5.106.527,6.517,3.149,1.4,2.166.261,2.842-2.64,1.347-2.026,1.425a45.36,45.36,0,0,0,4.752.448c2.991.149.172,1.721,3.514,1.721s4.223-.972,5.545-2.4,1.583-.673,4.4-.076,3.781,2.848,7.3,3.744,5.01,2.1,2.813.228-2.994-3.22-5.988-5.391-3.16-2.4-4.042-4.045-3.956-3.594-7.384-4.868-5.4-1.447-9.415-2.47C699.07,350.1,698.369,353.842,696.958,354.138Zm-23.14-7.487c-1.316.842-1.479.329-2.465-.231s-.713,1.165-2.9.231-3.012-1.4-5.367.19-.876,2.24-.933,3.358-1.975,4.289-2.688,5.454-.707,1.588-.16,2.332,1.316.464,1.639.842,0,3.309-.38,4.289.933,1.167,2.3.885.163-.372.163-1.4.654-1.488.654-3.4v-2.8s.389-.187.882.464,1.206,2.473,1.806,3.407,1.206,1.632,2.138.977,1.806-1.4,1.806-1.4-1.806-.513-1.806-1.072.766-1.026-.5-2.889-1.913-1.963-.324-2.055,1.536-1.539,2.465-1.96a5.143,5.143,0,0,1,2.246-.277,2.6,2.6,0,0,0-2.355-.513,19.013,19.013,0,0,0-3.894,1.167c-1.2.605-2.242.977-2.465-.144a7.111,7.111,0,0,1-.214-2.937c.163-1.537,2.076-.372,3.5-.744s1.426-.28,4.547-.092,3.341-.467,4.274-1.634a11.534,11.534,0,0,0,1.476-2.519S675.131,345.814,673.818,346.65Zm7.4-4.08c.276-.461-2.293,1.61-2.774,2.025s0,1.007.348,1.607.267,2.66.4,3.106,1.449.863,1.449.863a4.024,4.024,0,0,1,.443-2.022c.481-.635,0-1.423,0-2.582S680.379,343.957,681.216,342.57Zm-5.061,12.3c-2.017-.706-2.771-.244-2.771.719s-.226,1.447,1.925,1.447S679.892,356.163,676.155,354.865Zm4.021-.627c-.5.141-1.022,1.588-.737,2.457s.621.291,1.758.1.956-1.01,2.37-1.108a16.252,16.252,0,0,1,4.357.915s.627-.673-1.636-1.974S683,353.418,680.177,354.238Zm-40.241-47.629s-2.023.057-2.332.057-1.016.714-1.521.994-.5.671-.152,1.4.948.768,1.934,1.01.639-.394,1.369-.638a1.741,1.741,0,0,0,1.078-1.382c.151-.543.633-.787.814-.975s-.576-.823-.576-.88S639.935,306.609,639.935,306.609Zm23.82,2.6c-.8-.535-1.236,1.349-1.458,2.324s-.481,1.61-.086,2.321.22.937.22.937L661.287,314a6.218,6.218,0,0,0-.306,1.686c0,.785-.353,1.121.968,1.683s1.758.263,1.933,1.124.172,1.232,1.055,1.387a3.673,3.673,0,0,1,2.245,1.01c.348.521.172-1.387.787-1.276a3.463,3.463,0,0,1,1.764,1.466,1.56,1.56,0,0,0,1.1.67s-1.007-1.537-.567-1.721.567-.337-.573-.977a6.683,6.683,0,0,0-2.946-.6c-.876-.111-.876.562-1.538-1.007a4.245,4.245,0,0,1-.134-2.886c0-.337.481.524,1.016-.562a5.321,5.321,0,0,0,.567-3c-.086-1.045.79-1.458.128-1.493A10.75,10.75,0,0,1,663.755,309.21Zm10.464,20.122c.133.757-.79-.212-1.138.225s-.529.35-1.09.562a11.628,11.628,0,0,0-1.907,1.36s-.018-.744.009-.909-.41-1.04-.823-.451a3.686,3.686,0,0,1-1.735,1.387,2.5,2.5,0,0,0-1.613,1.8c-.116.76.561.733.561.733a5.025,5.025,0,0,0,.977-1.124c.609-.869.719-.844,1.827-.969s1.022-.114,1.369.434.08,1.376.116,1.979-.036,1.333,1.1,1.683.6.03,1.636-.052,1.022-.06.87-.538a8.15,8.15,0,0,1-.529-1.458c-.062-.562.6-.8.814-.912s.348.559.659,1.262.439.673.573.138a7.394,7.394,0,0,0,.365-2.47,8.862,8.862,0,0,1-.2-1.757,2.141,2.141,0,0,0-.811-1.431c-.3-.2-1.319-1.023-1.319-1.023S674.091,328.575,674.219,329.333Zm-5.064-4.585s.024-.478-.927-1.33-.983-1.108-2.444-1.336-2.911.117-2.3,1.542.793,1.637,2.028,1.811a2.7,2.7,0,0,0,1.978-.437s.1.228-1.072.9-1.3,1.941-.383,2.438.888,1.257,1.411.877.909-1.7,1.978-2.612,1.137-1.048,1.274-2.017a7.09,7.09,0,0,0,.024-1.756ZM671.65,322c-.134.1-.894-.071-.1.633s1.518.855,1.42,1.376-.036.616-.475.562-.579-.155-.778-.171-.226.339-.1.66.1-.041.475.508.285.73.4,1.363.413.323.413.323-.1-1.518-.053-1.827-.134-1.053.431-.814.41,1.138.742.3a3.549,3.549,0,0,0,.015-2.261c-.16-.673-.743-.7-1.42-.7A6.06,6.06,0,0,0,671.65,322Zm-11.381,2.6c-.327.076-.529.367-.725,1.393a3.813,3.813,0,0,1-1.5,2.161,20.87,20.87,0,0,0-2.6,2.541c-.1.323-.122.125,1.253-.462s2.453-1.376,2.617-2.177-.163-.307,1.042-.828.591-.687.644-1.5S660.871,324.462,660.268,324.6Zm72.823,30.664c-.146,1.04.333,1.349-.725,2.117a6.926,6.926,0,0,1-3.371.934c-1.12.168-.3-.166-1.687-.2s-1.74.054-1.1.69.481,1.257,2.531,1.184,3.733-1.089,5.058-1.463,1.212-1.349,1.321-1.8S733.243,354.138,733.092,355.262Zm5.714,2.248c.57.733.353.619,1.078,1.591a4.7,4.7,0,0,0,2.727,1.406c.858.261.006-.282-.632-1.07a9.287,9.287,0,0,0-1.628-2C739.4,356.649,737.82,356.217,738.806,357.51Zm-74.288-62.954c-2.818,1.637-4.087,1.518-2.964,3.595s1.824,2.956,1.978,3.353.725-.266,1.491-1.911.858-3.8,1.167-4.455S665.49,293.994,664.519,294.556Zm48.276-80.777c.309,1.089.615,2.775-.086,2.959s-1.188,1.385-1.363,2.623-.529,2.807.214,3.779.22,1.048.22,1.873a13.648,13.648,0,0,1-.172,4.154,4.638,4.638,0,0,0-.529,2.848,22.242,22.242,0,0,1,0,3.442c0,1.873-.128,3.372-.042,4.118s.523-.375.832-.635a1.947,1.947,0,0,1,2.156.225l.662.635s1.057.41-.395-2.432-1.717-2.248-1.322-4.83.615-2.62,2.112-2.883,2.284,1.61,2.465,1.8-.134-.635-.662-2.1-1.016-1.944-1.188-3.779-.8-3.369-1.583-3.9-.395-1.382-.042-2.093a5.447,5.447,0,0,0,.306-3.032,29.5,29.5,0,0,0-.787-3.632c-.226-.673-1.1.407-1.1.407Zm-1.322,28.679a3.319,3.319,0,0,1-.437,2.508c-.618.934-.178,1.162-.526,2.47s-2.073,0-2.073.263a2.6,2.6,0,0,1-.7,1.537c-.44.334-1.936.413-1.5,1.718a17.876,17.876,0,0,0,1.236,2.7,6.9,6.9,0,0,1,1.138-.823c.267-.076.968-.263.968-.263s-.128-.377-1.1-.787a1.169,1.169,0,0,1-.748-1.534c.134-.263,1.363.076,2.153,0s1.455-.448,2.424.261a6.759,6.759,0,0,0,2.373.977,6.2,6.2,0,0,1,.615-1.8c.443-.749,1.717-.413,2.994-.749s2.239-.524,1.8-1.01-.4-1.575-.665-2.4-1.1-.035-1.758.261a2.65,2.65,0,0,1-2.373-.448,16.38,16.38,0,0,1-3.032-3.3S711.386,241.636,711.473,242.458Zm-3.938,12.282a2.5,2.5,0,0,0-.852,2.275c.1,1.091,1.12-.084-.2,3.282s-1.978,4.129-3.264,5a3.382,3.382,0,0,1-2.964.643c-.5-.223.134-.983.493-1.205s-1.126-.31-1.747-.223-.036.728-.1,1.26-1.283,1.968-1.149,2.614.128.842-.662,1.067-1.316-.535-1.548-.646a20.052,20.052,0,0,0-2.97.391,2.917,2.917,0,0,0-2.6,1.713c-.662,1.04-2.216,1.208-3.336,1.6s-.692,1.852-1.916,2.359-1.218,1.431-1.316,2.191.754.223.888.168.134-1.07.894-.953.859.136.457.92-.621,1.181-1.016,1.857.128.98.719,1.656,1.161-.2,2.409-1.4,1.357-1.49,1.259-2.87-.6-1.406-1.521-1.795-1.126,0-.1-1.07,1.485-.024,2.174-.5,2.379-.451,3.992-.817,3.172-.839,3.237-.367.561,2.08.621,2.419,1.132-.478,2.21-.844.068-.532-.03-1.176a1.078,1.078,0,0,1,.493-1.013s.561,1.064,2.308.307,1.886-1.064,2.343-.956.76.538,1.485.111.861-.024.728.312,2.112-.646,2.6-.956.232-.03.033-1.205-.823-1.265-.457-2.783a12.358,12.358,0,0,0,.359-2.612c.1-.953.493-1.094.76-1.148s.267-1.322.823-2,.431-.98.431-2.528-.93-1.262-.986-2.356a7.371,7.371,0,0,1,.226-2.161s-1.88.646-2.076,1.034l-.205.4S708.167,254.458,707.534,254.74Zm-12.311,16.873a36.522,36.522,0,0,0-4.479.825c-1.159.339-1.4.8-1.224,1.857a20.786,20.786,0,0,0,.79,2.663c.163.548.8,0,1.88-.527s1.022-2.074,2.058-2.074.656,1.1,2.061-.44.336-1.67.38-2.451S695.223,271.613,695.223,271.613Zm123.264-83.161c-2.088-.369-2.691-.785-2.881-.092s-.419.918.9,1.347,1.978-.318,3.214.524a2.813,2.813,0,0,0,2.531.692,2.09,2.09,0,0,0,1.316-.543A31.617,31.617,0,0,0,818.487,188.452Zm-23.823-30c-.766.2-1.393-.478-1.191,1.235s.621,1.909,3.029,1.6a32.238,32.238,0,0,1,3.9-.307c3.3-.225,3.986-.649,3.986-.649a5.4,5.4,0,0,0-1.577-1.626c-1.126-.787-2.611.532-5.15.138S794.664,158.453,794.664,158.453Zm-74.329-25.3c.036.654,3.3,2.5,4.485,3.032s2.112.307,4.624.052,2.7-1.232,3-1.794-1.191-.361-2.866-.673-3.068.28-3.668,0,.894-.562-.591-1.067-1.85.168-2.18-.054-.395-.706-1.12-.76S720.3,132.538,720.335,133.157ZM707.407,137c-1.138.418-1.057.79.226,1.77s.864.76.3,1.458,0-.027,1.844.733,2.611,2.134,3.763,2.443a2.959,2.959,0,0,0,1.945-.084A9.291,9.291,0,0,0,714,140.85c-1.087-1.349-3.436-1.743-3.864-2.921S709.019,136.412,707.407,137Zm11.776-5.5s-1.684-.923-4.223-2.386-3.5-1.852-4.357-1.966-.719.817-1.054,1.545-.558.589-1.88,0a21.5,21.5,0,0,0-3.992-1.77c-1.351-.282-2.174.733-3.724,2.134s-.662,1.8,1.218,3.874,2.708,2.194,4.223,1.379,1.084-1.349,2.177-.956,4.847-.394,4.981-.394-.232,1.911,1.423,1.406,3.16-.76,3.921-1.518S719.183,131.5,719.183,131.5ZM604.945,91.392c-.481.375-3.3.152-4.752,2.245s-2.459.635-3.214,1.909a25.39,25.39,0,0,0-1.363,2.81,4.081,4.081,0,0,0,2.733,1.311,6.54,6.54,0,0,1,5.233,2.172c1.363,1.721,2.373,1.721,5.673,2.207s1.8.9,3.523.752,4.084.187,3.561-.6a3.159,3.159,0,0,1-.7-2.8c.214-1.539,1.749-1.463-.047-2.473a4.115,4.115,0,0,0-2.994-.375c.092-.187,1.631-.749,1.016-.785s-3.656-.187-4-1.762.832-1.686,1.446-1.8.446-.3-1.319-1.458-4.131-2.359-4.131-2.359C604.5,90.906,605.426,91.017,604.945,91.392Zm16.537,11.345a5.527,5.527,0,0,0-3.08,2.394,18.9,18.9,0,0,1-3.166,3.22c-.924.673-.662.861.835,1.349s4.134-.861,4.883-.9,1.319,1.013,3.7.747,5.979-.673,4.223-1.832-1.144-.6-3.083-2.02a9.022,9.022,0,0,0-4.4-1.539s4-1.235,3.032-1.309S621.482,102.737,621.482,102.737ZM519.793,84.279c-2.3.752-1.5,1.124-2.994,2.207s-.487,1.387,2.733.676a21.526,21.526,0,0,0,5.453-1.871C527.049,84.428,523.226,83.155,519.793,84.279Zm5.1,5.28c-2.159.874-1.586,1.795-1.01,2.547s2.153-.451,2.593.372.573.486,2.6-.749,1.277-.858.487-2.169S528.593,88.058,524.893,89.559Zm-12.014-.546c-1.387.6-1.387.535-.071,1.1s4.521,1.007,6.169.027,1.524-.785-.558-1.067S514.42,88.34,512.879,89.014Zm-20.39,2.275a34.079,34.079,0,0,1,5.839-.084c1.714.168,1.087,1.515-2.082,1.824s.3.76,2.542.679.793-1.773,2.673-2.362,3.068-.228,5.308-.956-1.283-1.433-3.891-1.376a55.889,55.889,0,0,1-5.673.057c-2.213-.141-3.992.771-6.267,1.124C486.252,90.922,490.348,91.457,492.489,91.289Zm16.823.535c-1.886,0-6.433.956-2.6,1.29s3.531.562,5.109.03S511.3,91.824,509.312,91.824Zm13.33.73c-2.685-.809-2.744-.481-4.82-.4s-2.9,1.265-1.544,1.773a5.929,5.929,0,0,0,3.395.138c1.12-.168,1.054-.475.33-.728S524.224,93.029,522.641,92.554Zm11.283-3.032c-2.061.233-2.183.562-2.379,1.178s.3.478,2.477.223a12.111,12.111,0,0,0,4.618-1.235c1.414-.7-.3-2.413-.3-2.726s-2.014.931-2.575,1.379S536.36,89.242,533.925,89.521ZM372.373,197.229c-1.04,2.62-2.75,3.828-.725,3.1s4.042-2.984,3.944-1.051-2.076,1.656-1.455,3.548.157,1.732,3.525,2.416.621.445,1.458,2.259,1.4,2.375.514,2.9-3.475-1.653-3.629-.725.359,1.613.986,2.9-.419,2.014-2.385,2.856-.261,1.374,1.241,1.295,5.29-.728,4.669.483-2.435-.2-3.73,1.814-6.077,3.744-3.582,3.627,2.127-.728,9.546-1.694,2.281-.084,7.161-1.452,3.318-1.732.618-1.33,1.77-2.419,1.143-5.033-2.385-.122-3.526-1.775-.986-2.137,1.194-1.531,1.972-.4-2.233-2.859-1.607-1.976-3.525-4.029-5.189-1.813-5.189-1.813a6.327,6.327,0,0,0,2.228-2.259c.832-1.49.989-1.368,1.868-3.182s-.879-1.651-3.107-1.208-2.967.646-2.495-.16a8.49,8.49,0,0,1,1.815-2.137c1.039-1.007,1.241-1.534-.671-1.129a15.089,15.089,0,0,0-3.843,1.051C371.7,193.157,373.413,194.609,372.373,197.229Zm-5.242,6.163c-3.389,1.224-2.438,2.017-1.862,2.46s1.607-.4-1.562,1.249-3.214,3.464-1.553,3.825,1.449-.885-.309,2.137-2.958,5.079.621,4.311,4.565-2.454,6.276-2.655,2.026-1.452,2.026-3.347-1.144-1.933.211-3.5,1.449-3.222-1.2-3.988S369.258,202.629,367.131,203.392Zm42.612,42.286c-.178.424.226,1.572-1.143,2.359s.662,1.5,1.1,2.248,1.013-2.546.879-4.118S410.316,244.331,409.743,245.678Zm-.656,6.214c-2.236.969-2.37,1.686-2.643,3.223s1.809.3,1.274,1.645-.039,2.058,2.293.787,1.01-2.432,1.363-4.042S412.036,250.619,409.087,251.892Zm34.483,16.55c-1.966-.177-2.836.953.529,1.292s4.877.394,6.136.111.193-.057-1.455-1.067S446.076,268.664,443.569,268.442Zm18.729.953c-2.709-.535-1.972,2.473.8,2.025s1.717.166,2.97-1.686S465.144,269.957,462.3,269.395Zm-67.376-13.943c-2.2.252-2.373.934-.662,1.347s1.5-.076,2.465-.711S395.89,255.34,394.922,255.451ZM261.67,218.8a17.605,17.605,0,0,0-4.814,5.563c-1.916,3.144-1.711,2.807-3.564,4.547s-.921,1.347,4.814,2.359,5.281,1.8,6.6,1.461,1.583.673,1.583,1.74,1.247.448,1.847-1.235-.6-4.716-1.782-6.459-1.455-1.74-3.3-1.29-1.253-.394-1.91-1.743-1.723-.282-.134-2.3S262.992,217.843,261.67,218.8Zm-175.6-3.589c0,1.667,1.931,4.526,3.38,5.462s1.149.413.487-1.572-.134-1.985-.44-3.258S86.07,214.6,86.07,215.207Zm9.629,9.133a16.321,16.321,0,0,0,3.561,3.106,13.09,13.09,0,0,0,4.663,1.947c2.112.565,3.035-.187,1.672-1.309s-.22-1.01-2.685-1.537-2.988-.337-4.223-1.051S94.865,223.552,95.7,224.339ZM42.069,205.713c-1.583-.328-2.21-.391-3.3.394s-1.381,1.458-.79,2.329.232.394,1.613-.475.731-.985,2.477-1.376,1.387-.928,1.387-.928A2.063,2.063,0,0,1,42.069,205.713Zm-.555-1.938c-1.069.586-1.423,1.067-.232.842s1.019-.842,1.779-.7,1.022-.141,1.022-.141A3.331,3.331,0,0,0,41.513,203.775Zm-30.449-4.466c-1.452.646-2.825-.111-1.934.38a5.872,5.872,0,0,0,3.071.855c.956-.1,1.583-.111,1.236-.532s-.443-.532-.46-.969C12.944,198.454,12.513,198.665,11.064,199.309ZM497.975,382.293c-1.669,3.372-5.192,1.724-8,4.194s-2.379,1.724-.267,5.166-1.752,3.07-2.726,7.115,1.143,3.293,2.287,6.736,1.675,2.4,3.787,1.949a13.032,13.032,0,0,0,3.6-1.347,44.992,44.992,0,0,1,1.758-7.414c1.408-4.42,2.379-7.639,2.637-10.558s.529-5.017,1.236-4.118.79.9.79-.524-.841-5.424-2.2-6.366C498.5,375.482,499.647,378.924,497.975,382.293Zm2.465-230.326c-2.3.483-3.4,1.77-1.717,2.275s1.515.225,4.289-.673S502.715,151.493,500.44,151.968Zm43.1-38.26c-.79-1.124-1.491.372-9.581,3.594s-8.013.445-15.578,5.913-5.893,4.792-6.335,8.087-2.2,1.871-2.9,4.865-4.571,3.146-2.64,5.62,4.485,3.893,8.527,4.941,5.192-.076,4.319-.451-3.956-4.792-3.341-9.809,2.637-4.268,4.4-6.138,6.335-6.741,9.329-8.389c2.9-1.6,10.645-3.839,14.541-5.063.11-.038.249-.033.321-.1C547.679,113.632,544.338,114.832,543.542,113.708Zm-21.812,33.653c-.956.128-1.408.155.354,1.724s3.3,2.772,2.721.673A2.9,2.9,0,0,0,521.729,147.361Zm28.9-15.236c-1.289-.548-1.978-1.121-2.287-.225s1.453,2.1,3.169,2.4S551.855,132.652,550.625,132.125ZM247.794,226.362a14.691,14.691,0,0,0-5.147-1.613c-1.268,0,.267,1.235,2.287,2.248S248.937,226.883,247.794,226.362Zm-4.66,7.523c.107-1.485-1.084,1.705.371,2.416s2.207.9,3.128.035.169-.32-1.1-.521S243.048,235.12,243.134,233.885Zm576.3-51.592a10.836,10.836,0,0,1-4.161-.391,5.506,5.506,0,0,1-.852,2.582,1.536,1.536,0,0,0-.2,1.743s-2.373-.956-3.76-1.4-2.638-.057-3.433-1.968-3.16-1.572-5.014-1.572-1.316-2.188-1.316-2.188l-1.12.054c-1.126.06-.927,2.53-2.379,3.315s-6,1.29-6,1.29,2.9,1.914,3.5,3.483a14.746,14.746,0,0,0,1.717,3.089s-.267.73-3.766.111-3.294.619-7.06,2.022a54.179,54.179,0,0,0-9.1,4.322c-1.063.787-1.126.337-4.422-.388s-3.956.836-4.82,1.235-.52-1.8-.52-1.8a6.933,6.933,0,0,0-2.646.676c-15.038,6.98-4.663,6.611-5.141,8.028l-1.589,5.446c-2.21,6.019-3.739,2.867-5.6,7.639-5.94,15.16-9.377-2.337-9.377-6.347,0-2.471-.591-5.671,1.126-6.4,14.764-6.285,1.387-.874,15.239-9.551,4.491-2.8,2.049-4.49,3.036-5.275a6.245,6.245,0,0,1,2.575-1.013l-2.444-.223c-2.441-.225-2.5.28-4.419,2.188s-3.427,2.248-3.032.785.457-2.973-.986-2.188-2.049.673-4.752,1.178a13.58,13.58,0,0,0-8.052,4.5c-2.442,2.807-1.054,2.47-.261,3.144s-3.9.505-6.136.337-1.06-.562.261-.958-1.978-.728-4.886-1.287-1.779.448-3.49,1.064-1.649-.562-2.507-.73-4.687-.394-7.39-.673-2.507.168-3.231,1.013-5.744,4.887-7.921,7.189-4.883,2.8-7.324,4.944-2.836,2.02-.858,2.356,2.242.166,2.575,1.852,1.253,2.242,3.365,2.242,1.518.51,1.913-.953-.526-3.141,1.253-1.852,3.231,2.251,3.76,4.1-.134,3.2-1.057,6.29-1.253,7.528-2.507,9.771-2.242,3.931-3.629,6.4-8.117,8.7-9.629,9.266-2.507.616-3.231-.616-1.253-1.013-2.97.391a7.761,7.761,0,0,0-3.169,4.493c-.659,2.248-2.112,2.248-3.63,3.928s-1.91,1.295-.79,3.2,2.964,3.934,3.169,5.785-.93,4.55-1.648,5.728-4.161,1.743-4.1,1.181a40.25,40.25,0,0,0,0-5c-.134-1.629-1.449-1.629-.992-2.131s2.379-1.349.992-2.53-2.373-.171-2.964-1.572.261-2.527-.065-3.032-1.322-1.067-3.368-1.233-2.507,1.68-2.97.052.2-1.8-.725-2.471-1.72-.223-4.084,1.629-2.845,1.463-4.824,2.248-1.978,1.235-1.518,1.852,2.112,3.312,3.5,3.594,2.379-.562,4.485-.562,2.513.28,1.984,1.013-1.984,1.461-4.553,3.817-1.788,1.911-.924,2.867a16.862,16.862,0,0,1,3.035,3.985c.921,1.854,0,2.527-.134,3.592a4.625,4.625,0,0,0,1.387,4.384c1.717,1.683.526,1.121.33,1.74s-3.1,5.446-4.42,7.862-1.325,2.639-5.61,5.389-6.2,3.033-8.509,3.426a30.349,30.349,0,0,0-5.477,1.463c-1.188.448-.731,1.347-.852,1.909-.14.562-1.259.054-1.06-.79s.068-1.458-.529-1.683a4.01,4.01,0,0,0-4.351.787c-1.916,1.686-4.229,1.8-5.016,3.931s-.656,1.406.2,2.3,5.013,4.55,6,6.513a11.767,11.767,0,0,1,1.256,5.563c.065,2.131-4.755,6.065-6.861,7.354s-2.575,2.53-2.245.5-.924-3.2-2.441-4.716-6.133-2.75-7-2.921.33-1.4-.267-1.347-1.972-.28-1.773,1.683-1.387,1.349-1.72,3.315-.725,3.985.662,3.82,1.12,1.74,2.177,3.874.653.953,3.3,2.918,1.978,1.629,2.575,3.594.395,3.092,1.717,4.887,1.381,2.191-.793,1.181a12.332,12.332,0,0,1-4.82-3.486c-.858-1.235-1.381-4.379-1.91-5.948s-4.09-3.426-5.278-4.55-.466-2.022.134-4.607-.267-5.052-.466-6.624a43.356,43.356,0,0,0-2.242-7.471c-.662-1.488-.4-1.292-1.423,0s-1.809,2.08-2.8,2.08-2.438-.144-2.311-.73,1.126-2.837.832-3.681-1.227-3.538-2.611-4.49a9.9,9.9,0,0,1-3.858-4.493c-.894-2.218-1.126-1.572-2.836-.424s-5.646,1.3-7.523,1.433-.332.985-.79,1.827-2.673,1.936-7.122,6.179-5.129,4.379-6.285,4.827-1.874.309-1.833,2.05a23.991,23.991,0,0,1-.018,4.243,8.483,8.483,0,0,1-1.212,3.179,17.781,17.781,0,0,0-1.161,3.727c-.148.934-1.141,2.023-2.593,2.975s-1.449.785-2.112-.619-4.087-6.793-6.861-11.848-2.112-5.954-2.379-7.417a108.809,108.809,0,0,1-.2-10.892c.068-.375-1.339,1.029-1.735,1.74s-.377,1.575-1.957,1.7-1.913.152-3.41-1.214-2.18-2.134-1.919-2.1a8.887,8.887,0,0,0,2.973-.6c.989-.451.656-.937.656-.937s-1.072.111-2.349.166-.707-.261-2.394-.877-2.073-.673-2.355-1.368-.7-1.664-.948-2.191-.44-.562-.725-1.213-1.1.109-2.923.149-1.411.111-3.609.9-2.531.508-5.016.432a16.943,16.943,0,0,1-5.477-1.442,15.774,15.774,0,0,0-3.3-.47c-1.85-.239-1.449-1.1-1.913-1.814s-1.23-.88-3.656-.711a8.455,8.455,0,0,1-3.864-.28c-1.36-.336-1.479-.787-2.62-1.835s-.766-.225-1.515-.768a5.874,5.874,0,0,1-2.088-2.753c-.6-1.458-.463-1.775-1.149-2.451s-.633-.508-2.771-.508-1.161.133-1.429.266a13.294,13.294,0,0,0-1.515,1.664c-.591.673.481,1.613,1.34,2.527s.113.825,1.476,2.207.9,1.257,1.865,3.182,1.586,2.419,1.806,3,.416-.225.639-.749a7.843,7.843,0,0,0-.089-2.394,11.169,11.169,0,0,1,.79,2.175c.377,1.382.11,1.4.377,2.28s0,.766,1.648.766a17.72,17.72,0,0,0,4.488-.337c1.83-.391,2.611-1.909,3.469-2.357s.864-2.025,1.435-1.854.024,1.854.549,2.959.656.709,1.94,1.2c1.268.486,1.625.768,2.917,1.214s.419.508,1.126,1.686.662.527,1.34.937.419.114-.062,1.518a4.693,4.693,0,0,1-1.717,2.563c-1.144,1.146-1.144.787-1.319.749s-.529-.842-.529-.842a8.18,8.18,0,0,0-.835,2.959c-.11,1.591.57,1.01-1.518,1.778s-3.347,1.086-4.155,1.721-.811,1.48-1.277,1.889-1.1.038-2.5.489a4.866,4.866,0,0,0-2.207,1.181c-1.182.823-.134.749-1.645,1.268s-4.265,1.746-5.652,1.873-1.1.47-1.449.937-.377.711-2.135.956a24.278,24.278,0,0,0-5.04.953c-1.078.489-2.655,1.572-3.8,1.368s-.835-.244-1.212-1.181a10.53,10.53,0,0,1-.748-3.146,13.812,13.812,0,0,0-1.74-5.348c-.962-1.479-.947-1.575-2-3.13s-1.764-2.861-2.685-3.461-1.381-.635-1.83-1.086-.172-1.984-.63-3.293a10.07,10.07,0,0,0-1.458-3.315,16.781,16.781,0,0,1-2.679-3.125c-.947-1.558-1.01-1.727-2.373-4.118s-1.85-2.7-2.75-4.306-.312-1.292-.639-2.248-1.188,1.553-1.868,2.042-1.031.242-1.583-1.184-1.016-2.671-1.432-2.112-.748,1.121-.181,2.642.841,1.195,1.589,2.636,2.792,5.058,3.626,6.551a9.917,9.917,0,0,1,1.277,3.035,6.063,6.063,0,0,0,2.239,3.48c1.036.939.864.451,1.322,1.982a17.373,17.373,0,0,1,.353,4.273c.065.934.639,1.423,1.868,2.356s.615.6,1.188,1.591a20.876,20.876,0,0,1,1.476,3.372,3.034,3.034,0,0,0,1.693,2.08,17.456,17.456,0,0,0,2.2.8c.968.32.633.546,1.295,1.311s1.936,1.349,2.732,2.565.258.861.214,2.039-.457.638.116,1.254a16.986,16.986,0,0,0,3.225,2.134c1.675,1.013.336.3,1.827.263s1.812-.4,3.413-.714,3.671-.858,5.649-1.287,3.914-.714,4.93-1.013,1.034.711.261,2.283-1.143,2.88-1.8,4.156-.906,1.385-1.387,2.414-3.742,5.24-4.416,6.57a16.068,16.068,0,0,1-2.489,3.5A52.219,52.219,0,0,1,489.8,347.9c-1.449,1.07-1.078,1.07-2.156,2.324s-4.351,4.737-5.239,5.97a25.208,25.208,0,0,0-2.04,2.9c-.656,1.216-2.525,2.937-2.64,3.82s-1.161.991-.371,1.759,1.206.9,1.5,1.871-.882,2.079-.134,3.855.22.508,1.345,1.93,1.072,2.321,1.185,4.4a20.766,20.766,0,0,1-.134,5.487,23.98,23.98,0,0,1-1.342,3.445c-.5,1.216-3.276,2.039-4.907,2.7s-1.553.391-2.308,1.214-2.9,2.544-3.627,3.817-1.277,1.146-.986,1.952.894,1.852,1.648,3.35.22,1.385.039,2.677-.152,1.086-.348,2.658-2.222,1.607-4.529,2.435-1.473.41-1.74,1.55a42.9,42.9,0,0,0-.2,4.737c-.086,1.347-.787.806-2.046,2.471s-1.758,2.454-3.1,4.455a7.607,7.607,0,0,1-2.928,2.978c-1.69,1.254-3.035,1.572-3.778,3.013s-1.607.486-5.239,1.553-.986.543-4.437.9-4.687.6-6.513.9-1.583-.092-2.7-1.216-1.3-1.032-1.8-1.966-.134-1.159-.288-2.845a4.236,4.236,0,0,0-.986-2.791,15.446,15.446,0,0,1-1.387-2.883,13.354,13.354,0,0,0-1.922-3.258c-.829-1.124-1.072-.766-1.844-1.493a3.5,3.5,0,0,1-.968-2.4c-.175-1.032-.44-3.464-.811-6.03s-.042-1.2-.487-2.286a41.888,41.888,0,0,0-1.714-3.833,20.172,20.172,0,0,0-1.628-2.848,16.681,16.681,0,0,1-1.758-3.087c-.725-1.558-.835-.863-.876-1.461s.371-1.686.416-2.734a38.028,38.028,0,0,1,.7-3.874c.288-1.613-.389-1.591.353-2.7a17,17,0,0,0,2.008-3.366,5.543,5.543,0,0,0,.413-2.9,4.875,4.875,0,0,0-.7-2.788c-.529-1.33-.725-2.886-1.363-5.02a11.766,11.766,0,0,1-.707-2.88,18.808,18.808,0,0,0-.962-3.8c-.443-1.121-.662-.673-1.625-1.4s-.333-.415-1.167-1.216-.683-1.067-1.5-1.947a11.035,11.035,0,0,1-1.589-1.911c-.653-.994-.3-.391-.214-2.061s.615-4.846.945-6.681.4-1.743-.371-2.508-1.322-1.871-1.913-2.061-2.026.19-4.113.152-2-.467-2.9-1.425-2.094-2.28-2.51-2.636-1.143-.339-4.7-.1-1.411.3-3.79.635-3.294,1.48-5.12,2.061-2.349.432-5.563-.152-4.814.676-6.445,1.314a3.327,3.327,0,0,1-3.6-.415,23.624,23.624,0,0,0-3.718-2.185c-1.821-.828-1.411-1.276-3.208-2.082s-1.212-.842-2.709-2.134-1.6-2.6-2.64-3.95-1.916-3.236-3.3-4.661-2.744-4.284-3.43-5.145-1.206-.937-1.188-1.352,1.345-2.826,1.9-4.078a20.223,20.223,0,0,0,.939-1.873c.244-.787-.324-3.052-.852-4.287s-1.126-3.839-1.538-5.052.217-1.235.725-1.928a40.741,40.741,0,0,0,2.967-4.27c1.25-2.134,1.96-3.182,2.617-4.175S358.3,289,359.3,288.17a31.684,31.684,0,0,1,4.589-2.973c1.078-.508,1.96-.785,2.133-1.235s.639-4.159.948-5.712-.1-2.413,1.126-3.011,3.208-1.724,4.244-2.248,1.185-1.311,1.714-2.454.749-2.582,1.542-3.051.567.206,1.6.844a4.412,4.412,0,0,0,1.7.785c.487.114.921-.356,2.133-.375a3.2,3.2,0,0,1,2.067.489c.725.353.33.356,2.4-.8a33.97,33.97,0,0,1,6.421-2.791,30.109,30.109,0,0,1,5.8-1.556c1.253-.13.615.019,2.026.527s1.473.728,1.758.353,1.212-1.423,1.8-1.385,1.277.263,2.8.505a4.149,4.149,0,0,0,2.771-.187c.609-.3,1.4-.9,1.556-.9s1.455.41,2.51.766,1.075.413.858.654a5.016,5.016,0,0,0-1.031,1.556c-.511,1.048-.267.486.214,1.591s.835,1.048.615,1.854-1.206,1.553-1.931,2.337-.552.918,1.23,1.835a25.863,25.863,0,0,0,3.365,1.591c2,.823,2.088.527,4.419,1.162s2.046.711,2.86,1.572.858,1.683,2.263,2.134,2.9.451,3.716.918a7.483,7.483,0,0,0,2.578,1.328c1.1.19,1.1.32,1.622-.41s.971-1.384.772-1.759-.793-.956-.659-1.311a24.279,24.279,0,0,1,1.339-2.207c.288-.434,1.016-.546,2.753-.619s2.943-.3,3.231.635.223.505,1.562,1.013,1.473.5,2.593.9.549.953,1.126.915a7.508,7.508,0,0,1,2.545.171,20.577,20.577,0,0,0,5.037,1.194,5.52,5.52,0,0,0,3.148-.616c.306-.13,1.758-1.759,2.617-.638s1.978,1.143,4.128,1.029,2.183-.407,2.664-.915a13.308,13.308,0,0,0,2.2-3.722c.413-1.314,1.556-4.175,1.862-5.468a7.034,7.034,0,0,0-.128-3.07,3.908,3.908,0,0,1,.419-2.153c.33-.861-1.034-.339-1.583-.168s-.7-.261-1.209-.394-1.037-.244-1.408.616-.2,1.292-2.222,1.2-1.648-.206-2.311-.863a5.978,5.978,0,0,0-2.685-1.064c-.9-.244-.986-.206-1.054.318s-.089.88-.743,1.086a6.225,6.225,0,0,1-3.413-.581,8.229,8.229,0,0,1-2.86-1.911c-1.236-1.1-1.054-1.1-1.559-2.807a6.833,6.833,0,0,1-.285-3.668c.214-.508.57-.654-.377-.394s-1.583.413-.945-.88a2.282,2.282,0,0,1,1.892-1.518,19.424,19.424,0,0,1,2.923-.261,7.549,7.549,0,0,0,2.661-.825c.443-.168,1.345-.448.882-.559s-1.85-.244-1.607-.6.395-.339,1.143-.413,1.916-.111,2.908-.168,1.577.111,1.913-.432A4.449,4.449,0,0,1,462.5,249.2c.772-.429,1.607-.206,3.629-.282s1.714.372,2.373.806,1.1.223,1.96.372.327.619.989.861,1.865.489,3.341.918.5.244,2.308.244a13.4,13.4,0,0,0,3.166-.206,6.65,6.65,0,0,0,3.035-1.366c1.016-.654.306-2.08-.065-3.182s-1.96-1.816-2.685-2.321-2.284-2.118-3.121-2.772a15.1,15.1,0,0,0-2.727-1.309c-.921-.47-2.575-1.238-2.726-1.854s.353-.635,1.717-.937.924-.562,1.185-1.216.377-.635,1.5-1.013-1.295-1.162-1.631-1.588.748-.3,1.874-.543,1.212-.733,1.363-1.162.1-.635-1.215-.616a27.471,27.471,0,0,0-5.207,1.067c-2.222.54-1.209.559-2.554,1.515s-1.426.543-1.253,1.067.261,1.029,1.625,1.686.79.676,1.173.768,1.292.225.876.337-.8.708-1.411.708-.882.578-1.931,1.127a6,6,0,0,1-2.287.728c-.772.114-1.322-.114-1.212-1.311s-.395-.391-1.212-.671a3.034,3.034,0,0,1-1.12-.6,9.62,9.62,0,0,0,1.631-.73,2.988,2.988,0,0,0,1.583-1.664c.4-.918-.882-.41-1.806-.521s-.659-.193-1.559-.3a1.679,1.679,0,0,1-1.253-.766,2.972,2.972,0,0,0,1.185.076c.769-.076.6-.263.882-.451s.508-.353.282-.353-1.164.09-1.8.052a7.394,7.394,0,0,0-1.94,0c-.927.133-.55.451-1.212.844a2.224,2.224,0,0,0-1.034,1.1c-.348.581-.463.486-.7.861a4.73,4.73,0,0,0-.22,1.947,1.814,1.814,0,0,1-.6,1.366c-.419.527-.419.3-1.12.619s-.244.543-.333,1.181a15.249,15.249,0,0,0-.392,1.7c-.065.823-.419.858-.968,1.442s-.861.578-.9,1.178a6.393,6.393,0,0,0,0,2.02c.152,1.162.5.863,1.5,2.042s1.512.733,1.158,1.33-.282.375-1.5.244a2.212,2.212,0,0,0-2.278.8c-.882.766-1.063,1.2-1.521,1.482s-.306-.562-.481-.961-2.2-.521-3.591-.9a17.426,17.426,0,0,0-2.112-.6,4.2,4.2,0,0,0-2.337.654c-1.449.727-1.126,1.154-1.022,2.107s1.247,1.151.924,3.394,1.218,1.208,1.88,2.587.062,1.262-.333,1.434-.787,1.347-1.09,2.47.036,1.262-.33,1.205a1.429,1.429,0,0,1-1.479-.728c-.7-.929-1.253-.057-1.357-.589s-.959-1.436-.627-2.671.858-1.349-.333-1.99-.885-.73-1.449-2.052a7.2,7.2,0,0,0-1.776-2.777c-1.1-1.211-.995-.874-.695-2.079s.529-2.78-.134-3.622a21.628,21.628,0,0,0-5.643-4.268c-2.239-1.1-2.7-.255-3.695-2s-1.446-3.567-3.1-4.634-.826-1.148-2.409-.616-1.619.757-1.485,1.178a3.324,3.324,0,0,1,.261,2.137c-.232,1.146-.558.787,1.09,1.683s.956.7,1.782,2.359a8.264,8.264,0,0,0,1.619,2.639,3.758,3.758,0,0,0,2.539,1.6c1.648.337,1.387-.081,1.812.282s-1.155.5-.855.676a15.9,15.9,0,0,0,2.043,1.431,10.884,10.884,0,0,1,3.172,2.218c.359.619,1.58,2.948-.2,1.235s-1.809-.926-2.308.253.457,2.08.4,2.948-.891.538-1.455,1.235-.858,1.545-1.521,2-.457-.508-.817-.508-.5.423-.956,1.232,0,1.157.19,2.251.535,1.178-.754,1.124-.992-1.151-2.174-1.884-1.88-.478-2.872-1.037.431-.7,2.9-.983,2.771-.5,3.531-1.04.493-.673,1.319-1.74,0-1.488-.564-2.783a4.865,4.865,0,0,0-1.978-2.131,19.848,19.848,0,0,1-1.91-1.74,4.841,4.841,0,0,0-2.741-1.121c-1.253-.282-1.022-1.322-1.714-1.632s-1.384-1.208-2.97-2.555-.986-2.359-1.717-3.537-1.449-2.08-3.032-2.08-2.774,1.01-4.357,2.416-1.253,2.077-3.1,1.013-2.507-.958-3.828.052-1.583,2.023-1.583,4.045-1.583,1.178-2.836,1.74-2.373,1.968-4.289,5.278.134,1.743-.264,2.867.131,2.02-1.648,3.478-.992-.163-2.043,1.013a5.371,5.371,0,0,1-5.017,1.857c-2.507-.28-1.782.616-3.365.956s-2.441.839-2.046-.79.068-1.4-2.964-1.29-4.1.844-3.831.451a9.259,9.259,0,0,0,.734-2.641c.33-1.575.787-2.077.33-2.077s-1.455.225-.731-2.582.992-3.315.659-4.946.131-3.82-.258-4.775.787-1.906.258-2.411-1.123-1.181-.725-1.181a30.01,30.01,0,0,1,4.155.4c2.118.334,4.286-.285,5.545-.171s3.894.616,6.525,1.01,2.575-.337,2.317-3.871.2-5.169-.6-5.9-1.645-.676-2.5-1.629-.2-2.359-2.043-2.867-3.9-.114-2.9-.448,1.384-.451.33-1.181-1.322-1.515-.529-1.629,3.035-.111,3.035-.111.2,1.01,1.384.562,2.706-.9,2.379-1.626-.927-1.632-.731-1.632a4.183,4.183,0,0,0,3.169,1.01c2.5,0,2.308-.334,2.109-1.29s1.654-.9,2.908-1.686-.463-1.686-.2-2.411,1.711-1.184,4.286-1.349,2.106-.565,1.844-.844.068-1.461.261-2.975-.193-2.023,1.126-2.753.921-.448,3.633-.673,1.048-.785,1.512-.9,3.695-.842,4.289-1.07.532-.163,0-1.235-1.253-1.683-1.847-6.624-.463-4.944,2.839-5.842,2.575-.616,2.308,2.134-1.717,2.753-2.046,4.775-.065,3.255,1.322,5.389,1.253,1.07,4.223,1.07,2.308.673,4.286,1.29,1.316-1.118,3.237-1.74,1.515.394,6-.223c1.714-.239,2.3-.291,2.432-.3-.139.005-.633.011-.122-.261,1.054-.562,1.322-1.575,2.842-1.746s2.569.4,2.5-1.737-.924-1.8-.656-3.426.324-.9.457-2.191-.19-1.515,1.717-1.966.6,1.575,2.9,2.02,1.984.79,2.379-.839,1.651-3.763.526-3.651-1.384-.057-2.5-1.569-1.782-1.857-1.057-1.857a42.091,42.091,0,0,1,6.659-.5c3.5.111,4.491.394,4.687.054s-.591-.671.594-1.347,5.082.339,4.488-.282-4.025-1.458-6.332-1.121-7.918.956-8.78.9a6.5,6.5,0,0,1-2.836-1.01c-.392-.394-1.645-.676-1.645-2.525s.725-2.587-.463-4.382,2.174-3.312,4.488-5.226,1.717-3.48,3.1-3.592,1.922-.785,1.253-1.4-3.1-2.753-4.286-2.978-2.97-1.461-4.814,1.461.128,3.2.463,4.718-2.575,2.639-4.758,4.042-2.964,1.067-3.624,4.659-1.325,3.711,1.12,4.944,2.9,1.854,1.785,2.921-3.5,1.013-4.954,3.54-.852,3.76-1.449,4.884-2.435,1.629-2.97,2.753-.523,3.255-2.768,2.921-.992-3.09-1.984-4.5-1.779-2.582-2.964-4.325-.261-3.426-1.387-4.325a4.8,4.8,0,0,1-1.384-2.693l-.4.844c-.4.839-.2,1.347-2.441,3.874a7.061,7.061,0,0,1-7.259,2.074c-1.645-.614-1.387-2.074-1.387-3.928a51.061,51.061,0,0,1-.062-7.243c.33-2.921,1.253-2.7,4.752-4.607s3.561-1.8,4.419-3.033,3.365-2.975,4.814-4.1,3.962-5.392,5.278-8.427,3.76-4.884,6.133-8.142,6.6-6.122,12.008-8.2,4.488-2.3,5.735-3.934,1.788-.673,3.9-1.064,1.779,0-.33,1.909-3.035,3.928-1.253,2.413,3.16-3.315,5.934-3.2,1.651,0,4.357,1.124,3.166,1.232,1.651,2.134a8.362,8.362,0,0,1-4.1.673,4.207,4.207,0,0,0,3.365,2.134c2.513.282,3.891-1.8,5.545-1.01s2.112,1.347-.134,1.178-2.9,1.124-.134,2.02a24.839,24.839,0,0,0,6.668,1.463c3.623.448,5.212,2.864,7.98,3.928s6,.171,5.082,2.473.725,4.547-4.09,5.617-4.687-.337-8.708-1.461-6.861-2.248-6.861-2.248a24.972,24.972,0,0,0,2.9,2.864c1.844,1.572,2.049,3.03,1.844,5.9s-1.054,3.651,2.118,5.055,2.706,1.01,3.689.785,2.64-.5,2.245-.953a4.439,4.439,0,0,0-1.779-1.74,1.044,1.044,0,0,1-.065-2.025c1.051-.5,2.043.451,4.351.339s0-.785,1.12-1.852,1.194-2.864,3.9-3.822,5.6.451,6.332-.614,1.515-2.3,0-3.934-2.709-2.188-1.785-2.975,2.771-2.864,3.632-1.686,3.033,2.473.264,2.248-.864,3.763,1.648,3.537,2.308-.956,4.357-1.852,6.068-3.877,8.9-4.778,3.427-.673,4.547-.223,1.126,1.292,4.229.733,4.021-1.235,6.926-1.686-.2.953,1.12,1.347,1.45.73,2.441.114,4.161-1.632,2.709-2.642-2.51-1.683-2.51-1.683a3.974,3.974,0,0,1,3.828-1.968c2.765.171,6.989,2.53,9.7,4.213a37.544,37.544,0,0,1,6.005,5.278,6.087,6.087,0,0,0,.19-4.941c-.986-3.089-3.493-2.359-3.493-5.278s-2.314-2.134-1.518-4.213,3.032-2.864,3.63-5.5,1.12-4.83,3.169-4.83,6.463.559,6.463.559a15.98,15.98,0,0,1-1.648,6.011c-1.648,3.594.858,3.991.463,8.367s-.463,4.944.656,5.954,3.237,2.248,2.441,4.156-1.188,3.089-4.152,4.156-6.73.448-5.349,1.292a13.905,13.905,0,0,0,5.144,1.854c1.984.28.992-.114,2.578-1.295s5.144-3.537,5.01-4.661-2.04-2.864-.725-3.706,1.844-2.131,3.891-1.067,4.027,5.055,4.027,4.884a10.536,10.536,0,0,0-2.836-6.174c-2.444-2.245-6.463-.114-6.463-2.08s1.12-4.664.852-6.8-1.182-4.268.33-6.122a6.254,6.254,0,0,0,1.586-3.312,7.281,7.281,0,0,1,.134,3.931c-.529,2.188.264,3.483,1.384,3.483s6.133.057,3.43-.676-3.493-1.4-.79-2.75,2.569-.451,6.525.394,4.886,1.458,6.207,1.4,1.12-.166.656-1.235a4.916,4.916,0,0,0-2.311-2.525c-1.25-.733-2.106.166-2.5-.956s-1.12-3.934-1.452-5,.995-.223,3.1-.223,7.856-.28,12.275-.391.071-4.327-.267-7.3,8.186-3.089,12.341-3.649,8.973-.394,16.757-2.08,2.774-1.4,3.894-3.423,3.033-2.359,5.343-2.359,4.425.391,3.567.671-3.433,1.461.591,2.248,2.97.73.858,1.4-.33,1.909,3.76,1.909,1.645-.334.986-1.569.6-.79,3.962-.282,4.687,1.01,6.531,2.582,2.174,1.181,2.836,3.372-.062,1.852-2.9,3.871-4.556,2.025-8.646,4.384-3.1,3.592-5.343,5.166-1.651,1.124,3.1,0,7.321-1.857,9.772-1.632c2.435.225,3.623,1.07,5.468,1.07s-.128.282,5.679.282,4.942,0,2.833,1.515.4,1.966,2.97,1.966a63.745,63.745,0,0,0,8.114-.225c2.379-.334.33-1.966,3.166-2.08s3.76-.337,6.793-.337,2.112,1.124,3.169,2.134,2.507,1.686,1.521,3.706-1.521,2.08-.93,4.832,2.118,3.144,3.962,3.646,1.844-2.468,3.632-3.478,2.174,2.02,4.223,1.569a13.19,13.19,0,0,1,6.13.282,10.856,10.856,0,0,0,5.806.28c2.507-.5,1.717-1.4.859-2.8s-.921-1.292.662-2.75,2.64-.733,7.784.5,3.5,1.235,6.4,1.968,1.978.562,6.4,2.411,3.567,4.048,5.607,5.223,2.177,0,6.273-.334,4.018.445,8.509,1.515,3.294,2.413,3.294,3.6-1.253,2.077,1.521,2.636,3.894,1.064,6.264.5.267.559,5.545.619,3.5-.562,5.082.451,1.978,3.03,4.55,2.807,2.376-.171,1.322-2.245-1.717-2.419-.2-2.359,4.615.673,10.354,1.515,5.934,1.8,10.627,4.493,6,2.921,9.433,5.332a8.139,8.139,0,0,1,1.6,1.254,9.22,9.22,0,0,1,1.77.654c3.689,1.577,3.032,1.072,6.2,2.473a36.361,36.361,0,0,1,5.866,3.372S821.8,182.07,819.435,182.292ZM511.613,239.374s-.353.426,1.5-.923-.864-.054-1.922-.334-1.384-.733-1.048-1.968-.134-1.235-1.259-2.861c0,0-.591-.337-1.844.334s-1.978-.671-3.5-.166-3.166.282-4.09,2.359-1.978.728-2.308,2.413-3.166,2.582-3.166,2.582,1.123,1.013,1.978,1.968.264.337,1.12,3.48,1.455,2.867,2.643,3.312a27.647,27.647,0,0,1,3.035,1.518s-1.12-.616-1.12,1.067-1.788,2.864-1.589,5.337-2.438,4.77-.327,5,1.449,1.067,3.76,1.632a23.7,23.7,0,0,0,6.995.953c3.359,0,1.515-1.181,1.051-2.921a21.658,21.658,0,0,1-.852-4.77c-.134-1.911-.93-1.406-1.458-2.587s.267-1.852,1.844-1.852,1.788-.06.93-1.347-.324-1.8-1.393-2.359c-1.048-.562-1.515,1.851-1.515,1.851s-.653-.562-.392-2.918.463-1.235-.327-1.686-1.256.111-2.314-1.461-.128-1.235-1.381-3.144-.6-.9.79-.9.653-.282,0-.9-1.12-1.575.653-1.461,4.1.448,4.948.5S511.613,239.374,511.613,239.374Zm-246.145-86.53c-.609.956,1.034,2.188,2.222,1.808s1.577.038,2.257-.456.737-1.216-.065-1.93-.481-1.129-.615-1.205C267.753,150.214,266.083,151.884,265.469,152.845Zm326.15-61.922c-1.785.06-3.763.114-2.109.622s.986,3.032,4.152,1.626,2.507-1.515,4.687-2.359.918-.44-1.717-1.064C594.983,89.353,593.4,90.871,591.618,90.922Z" transform="translate(-8.848 -73.881)" fill="#fff"/>
  <g id="Groupe_438" data-name="Groupe 438" transform="translate(10.717 148.496)">
    <rect id="Rectangle_424" data-name="Rectangle 424" width="19.677" height="82.112" transform="translate(0 297.044)" fill="#fff"/>
    <rect id="Rectangle_425" data-name="Rectangle 425" width="19.68" height="95.17" transform="translate(23.697 283.986)" fill="#fff"/>
    <rect id="Rectangle_426" data-name="Rectangle 426" width="19.677" height="62.815" transform="translate(47.393 316.341)" fill="#fff"/>
    <rect id="Rectangle_427" data-name="Rectangle 427" width="19.677" height="89.302" transform="translate(71.09 289.854)" fill="#fff"/>
    <rect id="Rectangle_428" data-name="Rectangle 428" width="19.68" height="112.01" transform="translate(94.787 267.146)" fill="#fff"/>
    <rect id="Rectangle_429" data-name="Rectangle 429" width="19.677" height="85.517" transform="translate(118.487 293.639)" fill="#fff"/>
    <rect id="Rectangle_430" data-name="Rectangle 430" width="19.677" height="136.223" transform="translate(142.183 242.933)" fill="#fff"/>
    <rect id="Rectangle_431" data-name="Rectangle 431" width="19.677" height="112.01" transform="translate(165.88 267.146)" fill="#fff"/>
    <rect id="Rectangle_432" data-name="Rectangle 432" width="19.677" height="89.302" transform="translate(189.577 289.854)" fill="#fff"/>
    <rect id="Rectangle_433" data-name="Rectangle 433" width="19.68" height="113.521" transform="translate(213.274 265.635)" fill="#fff"/>
    <rect id="Rectangle_434" data-name="Rectangle 434" width="19.68" height="136.223" transform="translate(236.971 242.933)" fill="#fff"/>
    <rect id="Rectangle_435" data-name="Rectangle 435" width="19.677" height="121.842" transform="translate(260.67 257.314)" fill="#fff"/>
    <rect id="Rectangle_436" data-name="Rectangle 436" width="19.677" height="146.061" transform="translate(284.367 233.095)" fill="#fff"/>
    <rect id="Rectangle_437" data-name="Rectangle 437" width="19.677" height="195.253" transform="translate(308.064 183.903)" fill="#fff"/>
    <rect id="Rectangle_438" data-name="Rectangle 438" width="19.679" height="171.034" transform="translate(331.758 208.122)" fill="#fff"/>
    <rect id="Rectangle_439" data-name="Rectangle 439" width="19.679" height="216.443" transform="translate(355.457 162.713)" fill="#fff"/>
    <rect id="Rectangle_440" data-name="Rectangle 440" width="19.674" height="195.253" transform="translate(379.157 183.903)" fill="#fff"/>
    <rect id="Rectangle_441" data-name="Rectangle 441" width="19.68" height="216.443" transform="translate(402.851 162.713)" fill="#fff"/>
    <rect id="Rectangle_442" data-name="Rectangle 442" width="19.677" height="204.337" transform="translate(426.548 174.819)" fill="#fff"/>
    <rect id="Rectangle_443" data-name="Rectangle 443" width="19.677" height="227.042" transform="translate(450.247 152.114)" fill="#fff"/>
    <rect id="Rectangle_444" data-name="Rectangle 444" width="19.677" height="252.769" transform="translate(473.944 126.387)" fill="#fff"/>
    <rect id="Rectangle_445" data-name="Rectangle 445" width="19.677" height="243.69" transform="translate(497.641 135.466)" fill="#fff"/>
    <rect id="Rectangle_446" data-name="Rectangle 446" width="19.68" height="292.313" transform="translate(521.338 86.843)" fill="#fff"/>
    <rect id="Rectangle_447" data-name="Rectangle 447" width="19.679" height="264.312" transform="translate(545.035 114.843)" fill="#fff"/>
    <rect id="Rectangle_448" data-name="Rectangle 448" width="19.677" height="278.693" transform="translate(568.734 100.463)" fill="#fff"/>
    <rect id="Rectangle_449" data-name="Rectangle 449" width="19.677" height="298.37" transform="translate(592.431 80.786)" fill="#fff"/>
    <rect id="Rectangle_450" data-name="Rectangle 450" width="19.677" height="332.801" transform="translate(616.128 46.355)" fill="#fff"/>
    <rect id="Rectangle_451" data-name="Rectangle 451" width="19.677" height="285.123" transform="translate(639.825 94.033)" fill="#fff"/>
    <rect id="Rectangle_452" data-name="Rectangle 452" width="19.68" height="320.03" transform="translate(663.521 59.126)" fill="#fff"/>
    <rect id="Rectangle_453" data-name="Rectangle 453" width="19.677" height="335.356" transform="translate(687.218 43.8)" fill="#fff"/>
    <rect id="Rectangle_454" data-name="Rectangle 454" width="19.674" height="357.208" transform="translate(710.918 21.948)" fill="#fff"/>
    <rect id="Rectangle_455" data-name="Rectangle 455" width="19.679" height="341.317" transform="translate(734.612 37.839)" fill="#fff"/>
    <rect id="Rectangle_456" data-name="Rectangle 456" width="19.68" height="379.156" transform="translate(758.308)" fill="#fff"/>
    <rect id="Rectangle_457" data-name="Rectangle 457" width="19.677" height="346.236" transform="translate(782.008 32.92)" fill="#fff"/>
  </g>
</svg>
