<svg xmlns="http://www.w3.org/2000/svg" width="147.966" height="121.887" viewBox="0 0 147.966 121.887">
  <g id="Groupe_11" data-name="Groupe 11" transform="translate(-1253.376 -296.976)">
    <g id="Groupe_2" data-name="Groupe 2" transform="translate(1253.376 362.466)">
      <g id="Groupe_1" data-name="Groupe 1" transform="translate(34.82)">
        <path id="Tracé_1" data-name="Tracé 1" d="M1357.687,487.537h-5.766v-5.212h5.766Zm0,28.9h-5.766V492.46h5.766Z" transform="translate(-1351.921 -482.325)" fill="#fff"/>
        <path id="Tracé_2" data-name="Tracé 2" d="M1400.017,526.89a8.8,8.8,0,0,1-.377,2.672,7.8,7.8,0,0,1-1,2.085,6.794,6.794,0,0,1-1.442,1.53,8.377,8.377,0,0,1-1.719,1.031,8.794,8.794,0,0,1-1.819.588,8.68,8.68,0,0,1-1.741.189h-15.613v-5.766h15.569a2.408,2.408,0,0,0,1.774-.6,2.345,2.345,0,0,0,.6-1.73,2.111,2.111,0,0,0-2.329-2.307h-8.938a7.184,7.184,0,0,1-3.238-.665,6.617,6.617,0,0,1-2.163-1.664,6.336,6.336,0,0,1-1.2-2.151,7.13,7.13,0,0,1-.366-2.151,6.973,6.973,0,0,1,.687-3.249,6.489,6.489,0,0,1,1.73-2.14,6.789,6.789,0,0,1,2.262-1.187,7.974,7.974,0,0,1,2.284-.366h14.172v5.766h-14.127a1.974,1.974,0,0,0-.7.1.82.82,0,0,0-.377.266.739.739,0,0,0-.144.355,3.115,3.115,0,0,0-.022.366,1.316,1.316,0,0,0,.133.555.692.692,0,0,0,.277.288.883.883,0,0,0,.377.1c.14.008.277.011.41.011h8.938a8.168,8.168,0,0,1,3.77.8,7.5,7.5,0,0,1,2.506,2.007,7.975,7.975,0,0,1,1.386,2.628A9.1,9.1,0,0,1,1400.017,526.89Z" transform="translate(-1367.505 -500.875)" fill="#fff"/>
        <path id="Tracé_3" data-name="Tracé 3" d="M1475.646,508.34a8.816,8.816,0,0,1-.377,2.672,7.8,7.8,0,0,1-1,2.085,6.812,6.812,0,0,1-1.442,1.53,8.4,8.4,0,0,1-1.719,1.031,8.811,8.811,0,0,1-1.819.588,8.68,8.68,0,0,1-1.741.189h-10.4a8.694,8.694,0,0,1-2.662-.377,7.628,7.628,0,0,1-2.073-1.009,7,7,0,0,1-1.53-1.453,8.406,8.406,0,0,1-1.031-1.719,8.8,8.8,0,0,1-.588-1.819,8.555,8.555,0,0,1-.189-1.719v-7.807a8,8,0,0,1,.81-3.759,7.644,7.644,0,0,1,4.646-3.893,9.261,9.261,0,0,1,2.617-.421h10.4v5.766h-10.358a2.4,2.4,0,0,0-1.752.588,2.306,2.306,0,0,0-.6,1.719V508.3a2.435,2.435,0,0,0,.588,1.774,2.305,2.305,0,0,0,1.719.6h10.4a2.33,2.33,0,0,0,1.752-.6,2.4,2.4,0,0,0,.577-1.73V482.325h5.766Z" transform="translate(-1414.747 -482.325)" fill="#fff"/>
        <path id="Tracé_4" data-name="Tracé 4" d="M1556.261,527.044a8.925,8.925,0,0,1-.421,2.584,7.721,7.721,0,0,1-1.364,2.572,7.6,7.6,0,0,1-2.462,1.985,7.858,7.858,0,0,1-3.693.8h-10.4a8.917,8.917,0,0,1-2.584-.422,7.709,7.709,0,0,1-2.573-1.364,7.594,7.594,0,0,1-1.985-2.462,7.85,7.85,0,0,1-.8-3.693,9.025,9.025,0,0,1,.421-2.595,7.7,7.7,0,0,1,1.364-2.584,7.612,7.612,0,0,1,2.462-1.985,7.86,7.86,0,0,1,3.693-.8h10.4v5.5h-10.4a2.313,2.313,0,0,0-1.819.721,2.585,2.585,0,0,0-.643,1.786,2.188,2.188,0,0,0,.743,1.763,2.633,2.633,0,0,0,1.763.633h10.357a2.328,2.328,0,0,0,1.819-.71,2.542,2.542,0,0,0,.643-1.774v-8.051a2.367,2.367,0,0,0-.7-1.8,2.457,2.457,0,0,0-1.764-.665h-12.664V511.01h12.664a8.929,8.929,0,0,1,2.584.421,7.744,7.744,0,0,1,2.573,1.364,7.607,7.607,0,0,1,1.985,2.462,7.853,7.853,0,0,1,.8,3.693Z" transform="translate(-1467.065 -500.875)" fill="#fff"/>
        <path id="Tracé_5" data-name="Tracé 5" d="M1633.5,516.776h-12.974a2.434,2.434,0,0,0-1.774.588,2.3,2.3,0,0,0-.6,1.719v15.9h-5.766v-15.9a8.693,8.693,0,0,1,.377-2.662,7.594,7.594,0,0,1,1.009-2.074,6.99,6.99,0,0,1,1.453-1.53,8.432,8.432,0,0,1,1.719-1.031,8.842,8.842,0,0,1,1.819-.587,8.612,8.612,0,0,1,1.719-.189H1633.5Z" transform="translate(-1520.356 -500.875)" fill="#fff"/>
      </g>
      <path id="Tracé_6" data-name="Tracé 6" d="M1259.143,511.761v15.574a2.375,2.375,0,0,0,.6,1.753,2.343,2.343,0,0,0,1.73.6h17.942V511.761h5.767v20.786a2.969,2.969,0,0,1-.222,1.153,2.736,2.736,0,0,1-.621.92,2.952,2.952,0,0,1-.931.61,2.918,2.918,0,0,1-1.131.222h-20.8a8.05,8.05,0,0,1-3.781-.81,7.774,7.774,0,0,1-2.506-2.019A7.689,7.689,0,0,1,1253.8,530a9.242,9.242,0,0,1-.421-2.618V511.761Zm13.041,15.618h-5.811V511.761h5.811Z" transform="translate(-1253.376 -501.36)" fill="#fff"/>
    </g>
    <g id="Groupe_8" data-name="Groupe 8" transform="translate(1293.478 296.975)">
      <path id="Tracé_7" data-name="Tracé 7" d="M1427.753,330.364v20.893h-21.966v2.3h24.241V330.364Zm-55.87,20.893v-19.3h-2.556v21.6h26.048v-2.3Zm31.8-51.784v2.3h24.074v19.265h2.275V299.473Zm-34.353,0v23.161h2.556V301.771h22.81v-2.3Z" transform="translate(-1368.46 -298.59)" fill="#fff"/>
      <g id="Groupe_3" data-name="Groupe 3" transform="translate(9.909 10.086)">
        <path id="Tracé_8" data-name="Tracé 8" d="M1479.563,325.526v35.679h-19.642l-.008-17.4h11.319v4.462h-7.372l.013,8.654h11.549v-31.4Z" transform="translate(-1436.947 -325.524)" fill="#fff"/>
        <path id="Tracé_9" data-name="Tracé 9" d="M1429.211,325.523v13.771H1413.9V361.2h-18.983V339.453l4.452,0v17.459l10.2.006V329.571l4.328,0v5.483h10.853l.007-9.539Z" transform="translate(-1394.915 -325.519)" fill="#fff"/>
      </g>
      <g id="Groupe_4" data-name="Groupe 4" transform="translate(26.805)">
        <rect id="Rectangle_3" data-name="Rectangle 3" width="4.2" height="4.242" fill="#fff"/>
      </g>
      <g id="Groupe_5" data-name="Groupe 5" transform="translate(58.274 23.016)">
        <rect id="Rectangle_4" data-name="Rectangle 4" width="4.2" height="4.242" fill="#fff"/>
      </g>
      <g id="Groupe_6" data-name="Groupe 6" transform="translate(0 28.559)">
        <rect id="Rectangle_5" data-name="Rectangle 5" width="4.196" height="4.242" fill="#fff"/>
      </g>
      <g id="Groupe_7" data-name="Groupe 7" transform="translate(32.561 51.693)">
        <rect id="Rectangle_6" data-name="Rectangle 6" width="4.196" height="4.242" fill="#fff"/>
      </g>
    </g>
    <g id="Groupe_10" data-name="Groupe 10" transform="translate(1289.71 403.338)">
      <g id="Groupe_9" data-name="Groupe 9" transform="translate(0 0)">
        <path id="Tracé_10" data-name="Tracé 10" d="M1380.383,622.242a.634.634,0,0,1-.481-.2.663.663,0,0,1-.189-.47v-4.362a4.89,4.89,0,0,1,.391-1.946,5.061,5.061,0,0,1,1.084-1.611,5.125,5.125,0,0,1,1.6-1.085,5.06,5.06,0,0,1,3.9,0,5.065,5.065,0,0,1,2.7,2.7,4.907,4.907,0,0,1,.391,1.946v4.362a.663.663,0,0,1-.19.47.634.634,0,0,1-.481.2.608.608,0,0,1-.459-.2.664.664,0,0,1-.19-.47v-4.362a3.643,3.643,0,0,0-.291-1.443,3.679,3.679,0,0,0-1.979-1.979,3.755,3.755,0,0,0-2.9,0,3.763,3.763,0,0,0-1.174.794,3.7,3.7,0,0,0-.794,1.186,3.647,3.647,0,0,0-.291,1.443v4.362a.665.665,0,0,1-.19.47A.609.609,0,0,1,1380.383,622.242Z" transform="translate(-1379.712 -606.718)" fill="#fff"/>
        <path id="Tracé_11" data-name="Tracé 11" d="M1411.486,615.017a.166.166,0,0,0,.011.068.143.143,0,0,1,.012.067.173.173,0,0,1-.023.112.178.178,0,0,1-.022.113v.022a.129.129,0,0,0-.044.09l-.022.022a.068.068,0,0,0-.023.045.107.107,0,0,1-.044.045.124.124,0,0,1-.044.056.179.179,0,0,0-.045.033l-.09.045s-.007.021-.023.021a.066.066,0,0,0-.044.023l-7.539,2.863a3.052,3.052,0,0,0,.57.94,3.886,3.886,0,0,0,.716.626,3.633,3.633,0,0,0,.683.369q.313.123.47.168a3.312,3.312,0,0,0,1.051.156,4.313,4.313,0,0,0,.694-.067,3.413,3.413,0,0,0,.828-.257,3.463,3.463,0,0,0,.85-.56,3.894,3.894,0,0,0,.783-.973.611.611,0,0,1,.582-.336.492.492,0,0,1,.314.089.609.609,0,0,1,.313.391.665.665,0,0,1-.067.5,5.044,5.044,0,0,1-1.834,1.879,4.777,4.777,0,0,1-2.438.648,5.106,5.106,0,0,1-1.432-.2,4.805,4.805,0,0,1-2.707-1.812,5.213,5.213,0,0,1,.134-6.218,5.055,5.055,0,0,1,2.774-1.7q.313-.067.615-.112a4.168,4.168,0,0,1,.615-.045,4.751,4.751,0,0,1,2.56.716,5.07,5.07,0,0,1,1.824,1.991v.045a.065.065,0,0,1,.021.044A.131.131,0,0,1,1411.486,615.017Zm-1.632-.178a3.153,3.153,0,0,0-.727-.716,3.757,3.757,0,0,0-.771-.414,3.209,3.209,0,0,0-.728-.19,4.847,4.847,0,0,0-.615-.045,4.449,4.449,0,0,0-.447.023,3.479,3.479,0,0,0-.425.067,4.013,4.013,0,0,0-1,.38,3.443,3.443,0,0,0-.907.7,3.78,3.78,0,0,0-.671,1.041,3.689,3.689,0,0,0-.291,1.409v.246Z" transform="translate(-1390.527 -606.696)" fill="#fff"/>
        <path id="Tracé_12" data-name="Tracé 12" d="M1424.874,608.33v3.713a4.84,4.84,0,0,0,.179,1.3,4.5,4.5,0,0,0,.492,1.163,3.1,3.1,0,0,0,.716.85,1.821,1.821,0,0,0,1.23.4.655.655,0,0,1,.481.19.626.626,0,0,1,.19.459.651.651,0,0,1-.672.671,3.287,3.287,0,0,1-1.767-.514,3.665,3.665,0,0,1-1.23-1.253,5.741,5.741,0,0,1-.694-1.554,6.2,6.2,0,0,1-.246-1.712V602.2a.609.609,0,0,1,.2-.459.669.669,0,0,1,.47-.19.649.649,0,0,1,.649.649v4.809h2.617a.651.651,0,0,1,.672.671.626.626,0,0,1-.19.459.655.655,0,0,1-.481.19Z" transform="translate(-1401.029 -601.552)" fill="#fff"/>
        <path id="Tracé_13" data-name="Tracé 13" d="M1449.219,612.176a.606.606,0,0,1,.458.2.661.661,0,0,1,.19.47v5.458a3.764,3.764,0,0,1-.313,1.521,4.026,4.026,0,0,1-2.1,2.1,3.746,3.746,0,0,1-1.52.313,3.861,3.861,0,0,1-3.267-1.768,4,4,0,0,1-1.42,1.3,3.836,3.836,0,0,1-1.868.47,3.751,3.751,0,0,1-1.521-.313,4.031,4.031,0,0,1-2.1-2.1,3.756,3.756,0,0,1-.313-1.521v-5.458a.687.687,0,0,1,.671-.671.609.609,0,0,1,.459.2.665.665,0,0,1,.19.47v5.458a2.489,2.489,0,0,0,.212,1.018,2.836,2.836,0,0,0,.559.839,2.447,2.447,0,0,0,.827.559,2.611,2.611,0,0,0,3.635-2.415v-5.458a.689.689,0,0,1,.671-.671.607.607,0,0,1,.459.2.663.663,0,0,1,.19.47v5.458a2.485,2.485,0,0,0,.213,1.018,2.853,2.853,0,0,0,.559.839,2.455,2.455,0,0,0,.827.559,2.612,2.612,0,0,0,3.635-2.415v-5.458a.687.687,0,0,1,.671-.671Z" transform="translate(-1406.808 -606.718)" fill="#fff"/>
        <path id="Tracé_14" data-name="Tracé 14" d="M1470.948,622.263a4.867,4.867,0,0,1-1.957-.392,5.178,5.178,0,0,1-1.6-1.074,4.944,4.944,0,0,1-1.085-1.588,5.054,5.054,0,0,1,0-3.9,5.1,5.1,0,0,1,2.684-2.695,5.06,5.06,0,0,1,3.9,0,5.072,5.072,0,0,1,2.7,2.695,5.066,5.066,0,0,1,0,3.9,4.98,4.98,0,0,1-1.085,1.588,5.149,5.149,0,0,1-1.611,1.074A4.894,4.894,0,0,1,1470.948,622.263Zm0-8.723a3.646,3.646,0,0,0-1.443.29,3.684,3.684,0,0,0-1.979,1.98,3.721,3.721,0,0,0,0,2.885,3.687,3.687,0,0,0,1.979,1.98,3.723,3.723,0,0,0,2.886,0,3.679,3.679,0,0,0,1.98-1.98,3.729,3.729,0,0,0,0-2.885,3.677,3.677,0,0,0-1.98-1.98A3.644,3.644,0,0,0,1470.948,613.54Z" transform="translate(-1421.627 -606.739)" fill="#fff"/>
        <path id="Tracé_15" data-name="Tracé 15" d="M1488.834,622.263a.661.661,0,0,1-.469-.19.61.61,0,0,1-.2-.458v-5.458a3.735,3.735,0,0,1,.314-1.521,4.021,4.021,0,0,1,2.1-2.1,3.747,3.747,0,0,1,1.522-.313h1.1a.662.662,0,0,1,.47.19.623.623,0,0,1,0,.917.665.665,0,0,1-.47.19h-1.1a2.5,2.5,0,0,0-1.018.212,2.6,2.6,0,0,0-.828.571,2.837,2.837,0,0,0-.559.838,2.481,2.481,0,0,0-.213,1.018v5.458a.649.649,0,0,1-.649.648Z" transform="translate(-1432.444 -606.739)" fill="#fff"/>
        <path id="Tracé_16" data-name="Tracé 16" d="M1502.724,617.076a.652.652,0,0,1-.481-.19.625.625,0,0,1-.19-.458v-14.2a.65.65,0,0,1,.672-.672.625.625,0,0,1,.457.19.652.652,0,0,1,.191.481v9.171h2.125a3.638,3.638,0,0,0,1.443-.291,3.675,3.675,0,0,0,1.98-1.98,3.637,3.637,0,0,0,.291-1.443.608.608,0,0,1,.2-.458.665.665,0,0,1,.471-.19.649.649,0,0,1,.648.648,4.827,4.827,0,0,1-.828,2.752,4.586,4.586,0,0,1-1.722,1.61,4.786,4.786,0,0,1,1.722,1.633,4.338,4.338,0,0,1,.626,1.309,5.211,5.211,0,0,1,.2,1.443.649.649,0,0,1-.648.648.664.664,0,0,1-.471-.19.607.607,0,0,1-.2-.458,3.64,3.64,0,0,0-.291-1.443,3.677,3.677,0,0,0-1.98-1.98,3.642,3.642,0,0,0-1.443-.291h-2.125v3.714a.651.651,0,0,1-.649.648Z" transform="translate(-1439.198 -601.552)" fill="#fff"/>
      </g>
    </g>
  </g>
</svg>
