<svg width="611" height="66" viewBox="0 0 611 66" fill="none" xmlns="http://www.w3.org/2000/svg">
<path d="M68.46 16L54.72 58H44.28L35.04 29.56L25.5 58H15.12L1.32 16H11.4L20.88 45.52L30.78 16H39.78L49.38 45.76L59.16 16H68.46ZM125.742 16H144.822C149.382 16 153.402 16.88 156.882 18.64C160.402 20.36 163.122 22.8 165.042 25.96C167.002 29.12 167.982 32.8 167.982 37C167.982 41.2 167.002 44.88 165.042 48.04C163.122 51.2 160.402 53.66 156.882 55.42C153.402 57.14 149.382 58 144.822 58H125.742V16ZM144.342 50.02C148.542 50.02 151.882 48.86 154.362 46.54C156.882 44.18 158.142 41 158.142 37C158.142 33 156.882 29.84 154.362 27.52C151.882 25.16 148.542 23.98 144.342 23.98H135.462V50.02H144.342ZM202.386 49H182.886L179.166 58H169.206L187.926 16H197.526L216.306 58H206.106L202.386 49ZM199.326 41.62L192.666 25.54L186.006 41.62H199.326ZM327.152 16V58H319.172L298.232 32.5V58H288.632V16H296.672L317.552 41.5V16H327.152ZM379.774 23.92H366.334V16H402.934V23.92H389.494V58H379.774V23.92ZM553.869 58L545.769 46.3H545.289H536.829V58H527.109V16H545.289C549.009 16 552.229 16.62 554.949 17.86C557.709 19.1 559.829 20.86 561.309 23.14C562.789 25.42 563.529 28.12 563.529 31.24C563.529 34.36 562.769 37.06 561.249 39.34C559.769 41.58 557.649 43.3 554.889 44.5L564.309 58H553.869ZM553.689 31.24C553.689 28.88 552.929 27.08 551.409 25.84C549.889 24.56 547.669 23.92 544.749 23.92H536.829V38.56H544.749C547.669 38.56 549.889 37.92 551.409 36.64C552.929 35.36 553.689 33.56 553.689 31.24Z" fill="white"/>
<path d="M585.28 41.5L579.64 47.38V58H569.98V16H579.64V35.62L598.24 16H609.04L591.64 34.72L610.06 58H598.72L585.28 41.5Z" fill="white"/>
<path d="M474.46 16L460.72 58H450.28L441.04 29.56L431.5 58H421.12L407.32 16H417.4L426.88 45.52L436.78 16H445.78L455.38 45.76L465.16 16H474.46ZM499.699 58.72C495.339 58.72 491.399 57.78 487.879 55.9C484.399 54.02 481.659 51.44 479.659 48.16C477.699 44.84 476.719 41.12 476.719 37C476.719 32.88 477.699 29.18 479.659 25.9C481.659 22.58 484.399 19.98 487.879 18.1C491.399 16.22 495.339 15.28 499.699 15.28C504.059 15.28 507.979 16.22 511.459 18.1C514.939 19.98 517.679 22.58 519.679 25.9C521.679 29.18 522.679 32.88 522.679 37C522.679 41.12 521.679 44.84 519.679 48.16C517.679 51.44 514.939 54.02 511.459 55.9C507.979 57.78 504.059 58.72 499.699 58.72ZM499.699 50.44C502.179 50.44 504.419 49.88 506.419 48.76C508.419 47.6 509.979 46 511.099 43.96C512.259 41.92 512.839 39.6 512.839 37C512.839 34.4 512.259 32.08 511.099 30.04C509.979 28 508.419 26.42 506.419 25.3C504.419 24.14 502.179 23.56 499.699 23.56C497.219 23.56 494.979 24.14 492.979 25.3C490.979 26.42 489.399 28 488.239 30.04C487.119 32.08 486.559 34.4 486.559 37C486.559 39.6 487.119 41.92 488.239 43.96C489.399 46 490.979 47.6 492.979 48.76C494.979 49.88 497.219 50.44 499.699 50.44Z" fill="white"/>
<path d="M363.5 50.2V58H330.98V16H362.72V23.8H340.64V32.92H360.14V40.48H340.64V50.2H363.5Z" fill="white"/>
<path d="M247.74 58L239.64 46.3H239.16H230.7V58H220.98V16H239.16C242.88 16 246.1 16.62 248.82 17.86C251.58 19.1 253.7 20.86 255.18 23.14C256.66 25.42 257.4 28.12 257.4 31.24C257.4 34.36 256.64 37.06 255.12 39.34C253.64 41.58 251.52 43.3 248.76 44.5L258.18 58H247.74ZM247.56 31.24C247.56 28.88 246.8 27.08 245.28 25.84C243.76 24.56 241.54 23.92 238.62 23.92H230.7V38.56H238.62C241.54 38.56 243.76 37.92 245.28 36.64C246.8 35.36 247.56 33.56 247.56 31.24Z" fill="white"/>
<path d="M72.98 16H82.7V58H72.98V16ZM106.468 58.72C103.148 58.72 99.9275 58.28 96.8075 57.4C93.7275 56.48 91.2475 55.3 89.3675 53.86L92.6675 46.54C94.4675 47.86 96.6075 48.92 99.0875 49.72C101.568 50.52 104.048 50.92 106.528 50.92C109.288 50.92 111.328 50.52 112.648 49.72C113.968 48.88 114.628 47.78 114.628 46.42C114.628 45.42 114.228 44.6 113.428 43.96C112.668 43.28 111.668 42.74 110.428 42.34C109.228 41.94 107.588 41.5 105.508 41.02C102.308 40.26 99.6875 39.5 97.6475 38.74C95.6075 37.98 93.8475 36.76 92.3675 35.08C90.9275 33.4 90.2075 31.16 90.2075 28.36C90.2075 25.92 90.8675 23.72 92.1875 21.76C93.5075 19.76 95.4875 18.18 98.1275 17.02C100.808 15.86 104.068 15.28 107.908 15.28C110.588 15.28 113.208 15.6 115.768 16.24C118.328 16.88 120.568 17.8 122.488 19L119.488 26.38C115.608 24.18 111.728 23.08 107.848 23.08C105.128 23.08 103.108 23.52 101.788 24.4C100.508 25.28 99.8675 26.44 99.8675 27.88C99.8675 29.32 100.608 30.4 102.088 31.12C103.608 31.8 105.908 32.48 108.988 33.16C112.188 33.92 114.808 34.68 116.848 35.44C118.888 36.2 120.628 37.4 122.068 39.04C123.548 40.68 124.288 42.9 124.288 45.7C124.288 48.1 123.608 50.3 122.248 52.3C120.928 54.26 118.928 55.82 116.248 56.98C113.568 58.14 110.308 58.72 106.468 58.72Z" fill="white"/>
</svg>
