<?xml version="1.0" encoding="utf-8"?>
<!-- Generator: Adobe Illustrator 17.0.0, SVG Export Plug-In . SVG Version: 6.00 Build 0)  -->
<!DOCTYPE svg PUBLIC "-//W3C//DTD SVG 1.1//EN" "http://www.w3.org/Graphics/SVG/1.1/DTD/svg11.dtd">
<svg version="1.1" id="Calque_1" xmlns="http://www.w3.org/2000/svg" xmlns:xlink="http://www.w3.org/1999/xlink" x="0px" y="0px"
	 width="307px" height="355px" viewBox="0 0 307 355" enable-background="new 0 0 307 355" xml:space="preserve">
<g>
	<polygon fill="#FFFFFF" points="197.355,86.645 197.276,137.635 197.276,141.662 197.263,146.928 197.248,146.928 197.178,161.621 
		197.248,161.621 197.3,189.107 167.746,188.866 167.691,161.591 185.417,161.606 185.484,146.913 153.107,146.882 153.135,204.148 
		210.968,204.224 211.032,86.66 	"/>
	<polygon fill="#FFFFFF" points="173.228,131.951 186.475,132.009 186.514,86.349 172.651,86.337 172.627,117.35 143.429,117.225 
		143.579,99.975 128.611,99.959 128.394,188.491 100.121,188.458 100.008,132.546 85.416,132.531 85.51,203.129 143.17,203.075 
		143.417,131.826 173.228,131.954 	"/>
	<path fill="none" stroke="#FFFFFF" stroke-width="1.114" stroke-miterlimit="10" d="M287.646,115.106
		c-3.515-69.759-67.712-120.13-144.977-96.415c0.006,0.006,0.012,0.012,0.018,0.021c-27.699,10.12-56.415,18.312-77.503,40.953
		c-32.318,27.483-52.567,60.073-44.309,104.723c0.293,34.951,12.399,65.357,35.263,91.619c44.608,33.6,115.804,35.76,161.815,6.526
		C272.584,227.825,290.703,175.74,287.646,115.106z"/>
	<rect x="96.723" y="250.304" fill="#FFFFFF" width="8.576" height="7.752"/>
	<rect x="96.723" y="264.576" fill="#FFFFFF" width="8.576" height="35.653"/>
	<path fill="#FFFFFF" d="M145.075,288.191c0,1.474-0.189,2.798-0.561,3.972c-0.375,1.178-0.87,2.212-1.486,3.103
		c-0.613,0.888-1.327,1.648-2.142,2.276c-0.815,0.625-1.666,1.138-2.557,1.532c-0.891,0.397-1.794,0.686-2.706,0.876
		c-0.909,0.186-1.776,0.281-2.587,0.281h-23.221v-8.576h23.154c1.165,0,2.044-0.296,2.639-0.891
		c0.595-0.595,0.891-1.449,0.891-2.572c-0.11-2.288-1.266-3.432-3.463-3.432h-13.293c-1.892,0-3.493-0.326-4.814-0.988
		c-1.318-0.659-2.392-1.483-3.216-2.471c-0.824-0.989-1.416-2.056-1.782-3.2c-0.363-1.144-0.543-2.209-0.543-3.197
		c0-1.913,0.342-3.527,1.025-4.833c0.677-1.309,1.538-2.371,2.569-3.182c1.034-0.815,2.154-1.403,3.365-1.767
		c1.208-0.363,2.343-0.543,3.396-0.543h21.076v8.573H119.81c-0.442,0-0.787,0.049-1.037,0.149c-0.253,0.098-0.442,0.232-0.564,0.397
		c-0.119,0.165-0.189,0.342-0.214,0.528c-0.021,0.186-0.034,0.366-0.034,0.543c0.024,0.351,0.092,0.629,0.201,0.827
		c0.11,0.195,0.247,0.339,0.409,0.427c0.168,0.089,0.354,0.137,0.564,0.15c0.204,0.009,0.412,0.015,0.607,0.015h13.293
		c2.197,0,4.07,0.397,5.608,1.187c1.538,0.793,2.782,1.788,3.725,2.984c0.946,1.202,1.632,2.502,2.062,3.908
		C144.861,285.674,145.075,286.982,145.075,288.191"/>
	<path fill="#FFFFFF" d="M187.288,288.191c0,1.474-0.186,2.798-0.561,3.972c-0.372,1.178-0.87,2.212-1.483,3.103
		c-0.616,0.888-1.33,1.648-2.145,2.276c-0.812,0.625-1.666,1.138-2.557,1.532c-0.888,0.397-1.791,0.686-2.703,0.876
		c-0.912,0.186-1.776,0.281-2.587,0.281H159.78c-1.474,0-2.792-0.189-3.957-0.561c-1.165-0.372-2.191-0.873-3.081-1.501
		c-0.891-0.625-1.651-1.345-2.276-2.16c-0.625-0.815-1.138-1.666-1.535-2.557c-0.397-0.891-0.689-1.791-0.873-2.703
		c-0.189-0.912-0.281-1.767-0.281-2.557v-11.609c0-2.2,0.4-4.064,1.202-5.592c0.802-1.525,1.803-2.77,3.002-3.725
		c1.196-0.958,2.502-1.644,3.908-2.062c1.406-0.415,2.706-0.625,3.89-0.625h15.471v8.573h-15.404c-1.144,0-2.011,0.293-2.605,0.876
		s-0.891,1.434-0.891,2.557v11.542c0,1.165,0.29,2.044,0.873,2.639c0.586,0.595,1.437,0.891,2.557,0.891h15.471
		c1.165,0,2.032-0.296,2.602-0.891c0.574-0.595,0.857-1.449,0.857-2.572v-38.689h8.576V288.191z"/>
	<path fill="#FFFFFF" d="M229.369,288.422c0,1.187-0.207,2.468-0.625,3.841c-0.418,1.376-1.092,2.651-2.029,3.826
		c-0.937,1.178-2.154,2.16-3.661,2.953c-1.504,0.79-3.335,1.187-5.492,1.187h-15.465c-1.19,0-2.471-0.211-3.844-0.625
		c-1.373-0.418-2.648-1.095-3.826-2.029c-1.178-0.937-2.16-2.157-2.953-3.661c-0.79-1.507-1.187-3.335-1.187-5.492
		c0-1.187,0.211-2.474,0.628-3.859c0.415-1.385,1.092-2.666,2.029-3.841c0.934-1.178,2.154-2.16,3.658-2.953
		c1.507-0.79,3.338-1.187,5.495-1.187h15.465v8.18h-15.465c-1.168,0-2.069,0.357-2.706,1.071c-0.638,0.714-0.958,1.602-0.958,2.654
		c0,1.123,0.369,1.998,1.107,2.624c0.735,0.625,1.611,0.94,2.621,0.94h15.401c1.165,0,2.069-0.351,2.706-1.056
		c0.638-0.702,0.955-1.583,0.955-2.636v-11.975c0-1.12-0.345-2.011-1.037-2.67c-0.693-0.662-1.565-0.992-2.624-0.992h-18.83v-8.146
		h18.83c1.19,0,2.468,0.211,3.844,0.625c1.373,0.418,2.648,1.095,3.826,2.029c1.175,0.937,2.16,2.157,2.95,3.661
		c0.793,1.507,1.187,3.338,1.187,5.492V288.422z"/>
	<path fill="#FFFFFF" d="M264.988,273.15h-19.294c-1.165,0-2.044,0.293-2.636,0.876c-0.595,0.583-0.891,1.434-0.891,2.557v23.645
		h-8.576v-23.645c0-1.474,0.186-2.795,0.561-3.96c0.372-1.165,0.873-2.194,1.501-3.085c0.625-0.891,1.345-1.648,2.16-2.276
		c0.812-0.625,1.666-1.138,2.557-1.532c0.888-0.397,1.791-0.686,2.7-0.876c0.912-0.186,1.766-0.281,2.557-0.281h19.361V273.15z"/>
	<path fill="#FFFFFF" d="M53.521,264.97v23.16c0,1.144,0.296,2.014,0.891,2.605c0.592,0.595,1.449,0.891,2.569,0.891h26.686V264.97
		h8.573v30.912c0,0.616-0.11,1.187-0.33,1.715c-0.223,0.528-0.528,0.982-0.924,1.367c-0.397,0.387-0.857,0.686-1.385,0.909
		c-0.528,0.217-1.089,0.329-1.681,0.329H56.981c-2.218,0-4.091-0.4-5.62-1.205c-1.529-0.802-2.773-1.803-3.728-2.999
		c-0.958-1.199-1.644-2.502-2.062-3.911c-0.418-1.406-0.625-2.703-0.625-3.89V264.97H53.521z M72.913,288.197h-8.64V264.97h8.64
		V288.197z"/>
	<path fill="#FFFFFF" d="M208.653,317.44c0,0.137-0.073,0.207-0.14,0.348c-3.338,2.779-7.02,5.004-11.05,6.532
		c-0.763,0.278-1.458,0.625-2.224,0.903c-0.415,0.14-0.766,0.348-1.181,0.488v0.067c0.278,2.294,0.137,4.589-0.415,6.743
		c-0.558,2.224-1.529,4.238-2.993,5.977c-1.529,1.806-3.405,2.987-5.696,3.545c-0.555,0.07-1.114,0.137-1.669,0.207
		c-0.552,0-1.181-0.07-1.806-0.207c-0.555-0.211-1.114-0.558-1.529-0.973c-0.488-0.485-0.766-0.973-0.973-1.528
		c-0.418-1.181-0.418-2.361-0.07-3.545c0.278-1.111,0.763-2.084,1.458-2.987c0.696-0.906,1.529-1.739,2.432-2.364
		c0.836-0.625,1.739-1.251,2.642-1.809c2.087-1.108,4.241-2.151,6.465-2.987c-0.211-0.833-0.488-1.736-0.766-2.569
		c-0.137-0.348-0.278-0.696-0.415-1.114c-0.211-0.625-0.418-1.251-0.625-1.876c-0.348-1.043-0.696-2.087-0.836-3.268
		c-0.207-1.111-0.278-2.224-0.207-3.405c0.067-1.111,0.278-2.224,0.625-3.268c0.348-1.111,0.903-2.154,1.599-3.057
		c0.696-0.973,1.666-1.669,2.85-2.087c0.696-0.204,1.321-0.067,1.946,0.211c0.552,0.485,0.903,0.97,0.903,1.666
		c0.07,0.558,0.07,1.114-0.07,1.672c-0.137,0.552-0.281,1.111-0.485,1.596c-0.488,0.976-0.973,1.947-1.599,2.853
		c-1.043,1.529-2.154,2.917-3.475,4.238c0.207,0.696,0.485,1.391,0.766,2.154c0.064,0.207,0.137,0.485,0.278,0.696
		c0.278,0.766,0.552,1.528,0.83,2.294c0.281,0.763,0.485,1.596,0.699,2.432c1.111-0.418,2.154-0.903,3.264-1.321
		c1.95-0.836,3.823-1.736,5.699-2.779c1.806-1.043,3.475-2.294,5.007-3.753c0.067-0.14,0.204-0.14,0.278-0.14
		c0.137,0,0.207,0,0.345,0.14C208.58,317.232,208.653,317.303,208.653,317.44 M192.041,326.614
		c-2.084,0.903-4.097,1.947-6.047,3.127c-0.9,0.555-1.733,1.114-2.499,1.806c-0.836,0.629-1.529,1.391-2.154,2.157
		c-0.558,0.83-1.043,1.666-1.324,2.639c-0.278,0.973-0.278,1.876,0,2.779c0.348,0.903,0.973,1.529,1.809,1.809
		c0.906,0.278,1.876,0.207,2.847-0.143c1.95-0.552,3.548-1.666,4.799-3.264c1.251-1.596,2.084-3.405,2.432-5.422
		c0.275-0.97,0.348-1.943,0.348-2.987C192.252,328.283,192.178,327.447,192.041,326.614 M191.208,316.674
		c1.114-1.181,2.087-2.502,3.057-3.89c0.558-0.836,1.114-1.739,1.461-2.712c0.488-0.97,0.625-1.947,0.555-2.92
		c-0.067-0.485-0.278-0.766-0.625-0.97c-0.418-0.211-0.766-0.211-1.184,0c-0.83,0.348-1.529,1.043-2.014,1.876
		c-0.485,0.9-0.833,1.806-1.043,2.776c-0.278,0.976-0.415,1.95-0.485,2.92C190.86,314.731,190.931,315.701,191.208,316.674"/>
	<path fill="#FFFFFF" d="M237.291,317.301c0,0.067,0,0.207-0.07,0.278v0.07c-2.084,2.709-4.311,5.281-6.672,7.716
		c-1.251,1.248-2.502,2.361-3.823,3.472c-1.181,0.903-2.221,1.599-3.197,1.947c-0.903,0.415-1.669,0.558-2.361,0.625
		c-0.625,0-1.111-0.067-1.529-0.211c-0.348-0.137-0.555-0.204-0.625-0.278c-0.906-0.693-1.461-1.529-1.739-2.432
		c-0.555-1.806-0.766-3.615-0.625-5.348c0.137-2.157,0.415-4.311,0.836-6.398c-1.184,2.575-2.435,5.074-3.823,7.508
		c-0.418,0.766-0.903,1.529-1.461,2.224c-0.278,0.348-0.625,0.693-1.04,0.97c-0.211,0.211-0.418,0.348-0.696,0.418l-0.421,0.14
		c-0.137,0.07-0.278,0.07-0.412,0.07c-0.351,0.067-0.696,0-1.043-0.14c-0.211-0.14-0.348-0.207-0.485-0.345h-0.073
		c-0.067-0.143-0.207-0.281-0.278-0.348c-0.348-0.558-0.485-1.114-0.555-1.602c-0.137-0.903-0.137-1.803-0.067-2.709
		c0.345-2.85,0.833-5.629,1.529-8.271c0.137-0.625,0.207-1.251,0.345-1.806v-0.07c0.07-0.207,0.211-0.415,0.418-0.558
		c0.211-0.137,0.418-0.137,0.696-0.067c0.207,0,0.415,0.14,0.555,0.348c0.137,0.211,0.137,0.415,0.07,0.696l-1.043,4.933
		c-0.418,1.669-0.625,3.335-0.833,4.936c-0.07,0.833-0.07,1.599,0.07,2.294c0,0.415,0.137,0.696,0.207,0.9
		c0.07,0,0.07,0.07,0.137,0.07c0,0,0,0.07,0.073,0.07h0.067h0.07h0.207c0.067,0,0.14-0.07,0.207-0.07
		c0.137,0,0.281-0.07,0.418-0.137c0.348-0.137,0.625-0.348,0.906-0.628c0.622-0.552,1.111-1.181,1.666-1.806
		c0.973-1.388,1.806-2.846,2.502-4.375c0.766-1.532,1.388-3.06,2.014-4.659c0.629-1.528,1.254-3.127,1.809-4.729v-0.067
		c0.07-0.07,0.07-0.137,0.14-0.278c0.067-0.07,0.067-0.14,0.137-0.207c0.07-0.14,0.07-0.14,0.07-0.211
		c0.211-0.207,0.415-0.278,0.622-0.278c0.214,0,0.351,0.07,0.421,0.207c0.067,0.14,0.137,0.281,0.067,0.488l-0.348,1.181
		c-0.204,0.836-0.348,1.669-0.552,2.432v0.14c-0.418,1.806-0.839,4.171-1.251,7.017c-0.421,2.853-0.421,5.425,0.067,7.716
		c0.345,1.391,1.043,2.157,2.084,2.224c1.04,0.07,2.084-0.137,3.127-0.696c1.043-0.485,1.809-0.973,2.361-1.318
		c0.976-0.836,1.95-1.669,2.85-2.642c0.281-0.345,0.629-0.625,0.906-0.903c2.361-2.432,4.586-5.004,6.535-7.713
		c0.067-0.073,0.207-0.14,0.345-0.211c0.067,0,0.211,0.07,0.278,0.137C237.221,317.094,237.291,317.164,237.291,317.301
		 M220.89,309.796v-0.07V309.796z"/>
	<path fill="#FFFFFF" d="M267.461,317.301v0.067c-1.809,2.365-3.615,4.729-5.629,6.883c-1.043,1.114-2.084,2.154-3.405,3.057
		c-0.628,0.418-1.324,0.766-2.087,0.973c-0.833,0.207-1.806,0.278-2.709-0.278c-0.485-0.278-0.766-0.763-0.976-1.251
		c-0.134-0.418-0.204-0.903-0.275-1.321c-0.073-0.903,0-1.669,0.14-2.435c0.275-1.596,0.693-2.987,1.111-4.445
		c0.418-1.388,0.973-2.779,1.318-4.104c0.14-0.622,0.211-1.318,0.211-1.803c-0.07-0.211-0.137-0.348-0.137-0.348
		c0-0.073-0.281-0.211-0.488-0.278c-0.836-0.281-2.154,0.137-3.335,0.9c-1.184,0.696-2.227,1.599-3.338,2.642
		c-1.043,0.973-2.017,2.017-2.987,3.13c-0.973,1.111-1.879,2.224-2.779,3.405c-0.906,1.181-1.806,2.361-2.785,3.542
		c-0.204,0.278-0.485,0.558-0.763,0.836c-0.278,0.278-0.555,0.555-0.973,0.903c-0.137,0.067-0.204,0.137-0.415,0.211
		c-0.14,0.067-0.348,0.137-0.766,0.067c-0.14,0-0.348-0.067-0.488-0.211c-0.137-0.067-0.137-0.067-0.207-0.067
		c0-0.07-0.067-0.07-0.067-0.137c-0.14-0.143-0.211-0.281-0.275-0.418c-0.351-0.488-0.421-0.973-0.491-1.391
		c-0.207-1.739,0-3.197,0.211-4.726c0.067-0.766,0.207-1.529,0.345-2.224c0.211-0.766,0.211-1.529,0.833-2.154
		c0.418-0.418,1.043-0.418,1.528,0c0.14,0.14,0.211,0.278,0.281,0.415v0.073c0.207,0.833-0.07,1.458-0.207,2.151
		c-0.207,0.766-0.348,1.458-0.485,2.154c-0.14,0.696-0.281,1.391-0.351,2.087c-0.134,0.696-0.134,1.391-0.134,2.014
		c0,0.073,0,0.211,0.064,0.281c0.07-0.07,0.211-0.207,0.348-0.281c0.211-0.204,0.485-0.485,0.766-0.763
		c0.973-1.043,1.946-2.154,2.85-3.268l2.847-3.475c0.976-1.111,1.95-2.224,2.993-3.335c1.043-1.04,2.154-2.084,3.475-3.057
		c0.625-0.418,1.318-0.833,2.154-1.181c0.766-0.281,1.736-0.418,2.779-0.211c0.207,0.067,0.488,0.14,0.696,0.278
		c0.207,0.07,0.555,0.281,0.763,0.555c0.485,0.488,0.696,1.114,0.766,1.602c0.137,0.973,0,1.806-0.14,2.572
		c-0.278,1.596-0.693,2.987-1.181,4.448c-0.415,1.385-0.903,2.709-1.321,4.097c-0.207,0.625-0.348,1.321-0.348,1.879
		c-0.067,0.622,0,1.181,0.211,1.458c0.207,0.418,0.833,0.622,1.458,0.555c0.693-0.137,1.321-0.485,1.876-0.833
		c1.251-0.766,2.294-1.739,3.338-2.782c1.943-2.151,3.75-4.518,5.281-7.02c0.137-0.275,0.485-0.345,0.696-0.207
		C267.528,316.743,267.601,317.02,267.461,317.301"/>
</g>
</svg>
